<svg xmlns="http://www.w3.org/2000/svg" xmlns:xlink="http://www.w3.org/1999/xlink" fill="none" version="1.1" width="32" height="32" viewBox="0 0 32 32"><defs><clipPath id="master_svg0_56_23129"><rect x="0" y="0" width="32" height="32" rx="0"/></clipPath></defs><g clip-path="url(#master_svg0_56_23129)"><g><path d="M28.750321875,15.13515625C28.750321875,15.13515625,15.257421875,3.42444125,15.257421875,3.42444125C15.153821875,3.33515605,15.021721875,3.28515625,14.882421875,3.28515625C14.882421875,3.28515625,11.721701875,3.28515625,11.721701875,3.28515625C11.457421875,3.28515625,11.335991875,3.61372825,11.535991875,3.78515625C11.535991875,3.78515625,24.043121875,14.64235625,24.043121875,14.64235625C24.043121875,14.64235625,3.143136875,14.64235625,3.143136875,14.64235625C2.985993875,14.64235625,2.857421875,14.77085625,2.857421875,14.92795625C2.857421875,14.92795625,2.857421875,17.07085625,2.857421875,17.07085625C2.857421875,17.22795625,2.985993875,17.35665625,3.143136875,17.35665625C3.143136875,17.35665625,24.039521875,17.35665625,24.039521875,17.35665625C24.039521875,17.35665625,11.532421875,28.21365625,11.532421875,28.21365625C11.332421875,28.38875625,11.453851875,28.71365625,11.718131875,28.71365625C11.718131875,28.71365625,14.985921875,28.71365625,14.985921875,28.71365625C15.053821875,28.71365625,15.121721875,28.68875625,15.171721875,28.64235625C15.171721875,28.64235625,28.750321875,16.86375625,28.750321875,16.86375625C28.873921875,16.75615625,28.973021875,16.62345625,29.041021875,16.47435625C29.108921875,16.325256250000002,29.144121875,16.16325625,29.144121875,15.99945625C29.144121875,15.83555625,29.108921875,15.67365625,29.041021875,15.52455625C28.973021875,15.37545625,28.873921875,15.24265625,28.750321875,15.13515625C28.750321875,15.13515625,28.750321875,15.13515625,28.750321875,15.13515625Z" fill="#FFFFFF" fill-opacity="1"/></g></g></svg>