<svg version="1.2" xmlns="http://www.w3.org/2000/svg" viewBox="0 0 32 32" width="32" height="32">
	<title>ArrowRight</title>
	<defs>
		<clipPath clipPathUnits="userSpaceOnUse" id="cp1">
			<path d="m32 0v32h-32v-32z"/>
		</clipPath>
	</defs>
	<style>
		.s0 { opacity: .9;fill: #000000 } 
	</style>
	<g id="Clip-Path" clip-path="url(#cp1)">
		<g>
			<g>
				<path class="s0" d="m3.2 15.1l13.5-11.7q0.2-0.1 0.4-0.1h3.2c0.2 0 0.4 0.3 0.2 0.5l-12.5 10.8h20.9c0.1 0 0.2 0.2 0.2 0.3v2.2c0 0.1-0.1 0.3-0.2 0.3h-20.9l12.5 10.8c0.2 0.2 0 0.5-0.2 0.5h-3.3q-0.1 0-0.2-0.1l-13.6-11.7q-0.1-0.2-0.2-0.4-0.1-0.3-0.1-0.5 0-0.2 0.1-0.5 0.1-0.2 0.2-0.4z"/>
			</g>
		</g>
	</g>
</svg>