<svg xmlns="http://www.w3.org/2000/svg" xmlns:xlink="http://www.w3.org/1999/xlink" fill="none" version="1.1" width="36.000001877260274" height="36.00000187726073" viewBox="0 0 36.000001877260274 36.00000187726073"><defs><clipPath id="master_svg0_56_23123"><rect x="36" y="36.00000187726073" width="36" height="36" rx="0"/></clipPath></defs><g transform="matrix(-1,-5.2146120310681e-8,5.2146120310681e-8,-1,71.99999812273957,72.00000563178179)" clip-path="url(#master_svg0_56_23123)"><g><path d="M68.94601309280395,43.71459290356688C68.94601309280395,43.71459290356688,65.93261309280396,43.71459290356688,65.93261309280396,43.71459290356688C65.72771309280395,43.71459290356688,65.53481309280396,43.815039903566884,65.41431309280395,43.979771903566885C65.41431309280395,43.979771903566885,53.999613092803955,59.71369290356688,53.999613092803955,59.71369290356688C53.999613092803955,59.71369290356688,42.58484309280396,43.979771903566885,42.58484309280396,43.979771903566885C42.464313092803955,43.815039903566884,42.27145309280395,43.71459290356688,42.066543092803954,43.71459290356688C42.066543092803954,43.71459290356688,39.05315009280395,43.71459290356688,39.05315009280395,43.71459290356688C38.79198979280395,43.71459290356688,38.63931129280395,44.01191490356688,38.79198979280395,44.224860903566885C38.79198979280395,44.224860903566885,52.958913092803954,63.75569290356688,52.958913092803954,63.75569290356688C53.47321309280396,64.46279290356688,54.525913092803954,64.46279290356688,55.036213092803955,63.75569290356688C55.036213092803955,63.75569290356688,69.20311309280396,44.224860903566885,69.20311309280396,44.224860903566885C69.35981309280396,44.01191490356688,69.20721309280395,43.71459290356688,68.94601309280395,43.71459290356688C68.94601309280395,43.71459290356688,68.94601309280395,43.71459290356688,68.94601309280395,43.71459290356688Z" fill="#000000" fill-opacity="0.8500000238418579"/></g></g></svg>