<svg xmlns="http://www.w3.org/2000/svg" xmlns:xlink="http://www.w3.org/1999/xlink" fill="none" version="1.1" width="32" height="32" viewBox="0 0 32 32"><defs><clipPath id="master_svg0_56_23244"><rect x="0" y="0" width="32" height="32" rx="0"/></clipPath></defs><g clip-path="url(#master_svg0_56_23244)"><g><path d="M28.842119107818604,21.9344C28.842119107818604,21.9344,10.232769107818603,21.9344,10.232769107818603,21.9344C10.232769107818603,21.9344,11.167179107818603,20.0312,11.167179107818603,20.0312C11.167179107818603,20.0312,26.692119107818602,20.0031,26.692119107818602,20.0031C27.217119107818604,20.0031,27.667219107818603,19.6281,27.760819107818605,19.109299999999998C27.760819107818605,19.109299999999998,29.910919107818604,7.075,29.910919107818604,7.075C29.967219107818604,6.7593700000000005,29.882719107818602,6.43438,29.676519107818603,6.1875C29.574519107818602,6.066,29.447419107818604,5.96813,29.303919107818604,5.9006799999999995C29.160319107818605,5.83323,29.003919107818604,5.79781,28.845319107818604,5.79687C28.845319107818604,5.79687,9.095269107818604,5.73125,9.095269107818604,5.73125C9.095269107818604,5.73125,8.926519107818603,4.9375,8.926519107818603,4.9375C8.820269107818604,4.43125,8.364019107818603,4.0625,7.845269107818604,4.0625C7.845269107818604,4.0625,3.0171491078186037,4.0625,3.0171491078186037,4.0625C2.7245771078186034,4.062500000000001,2.4439931078186037,4.178721,2.2371171078186034,4.385598C2.0302401078186034,4.592473,1.914019107818604,4.873058,1.9140191078186035,5.16563C1.914019107818604,5.45819,2.0302401078186034,5.73878,2.2371171078186034,5.94566C2.4439931078186037,6.1525300000000005,2.7245771078186034,6.26875,3.0171491078186037,6.26875C3.0171491078186037,6.26875,6.951519107818603,6.26875,6.951519107818603,6.26875C6.951519107818603,6.26875,7.689019107818604,9.775,7.689019107818604,9.775C7.689019107818604,9.775,9.504639107818605,18.5656,9.504639107818605,18.5656C9.504639107818605,18.5656,7.167149107818603,22.3813,7.167149107818603,22.3813C7.045749107818604,22.5451,6.972639107818604,22.7397,6.956069107818603,22.9429C6.9394991078186035,23.1461,6.980139107818603,23.3499,7.073399107818603,23.5312C7.2608891078186035,23.9031,7.639019107818603,24.1375,8.057769107818604,24.1375C8.057769107818604,24.1375,10.020269107818603,24.1375,10.020269107818603,24.1375C9.601889107818604,24.6932,9.375899107818604,25.3701,9.376519107818604,26.0656C9.376519107818604,27.8344,10.814019107818604,29.2718,12.582719107818603,29.2718C14.351519107818604,29.2718,15.789019107818604,27.8344,15.789019107818604,26.0656C15.789019107818604,25.3687,15.557719107818604,24.6906,15.145319107818603,24.1375C15.145319107818603,24.1375,20.179619107818603,24.1375,20.179619107818603,24.1375C19.761319107818604,24.6932,19.535219107818605,25.3701,19.535919107818604,26.0656C19.535919107818604,27.8344,20.973419107818604,29.2718,22.742119107818603,29.2718C24.510919107818605,29.2718,25.948419107818605,27.8344,25.948419107818605,26.0656C25.948419107818605,25.3687,25.717119107818604,24.6906,25.304719107818602,24.1375C25.304719107818602,24.1375,28.845319107818604,24.1375,28.845319107818604,24.1375C29.451519107818605,24.1375,29.948419107818605,23.6437,29.948419107818605,23.0344C29.946519107818602,22.7421,29.829219107818602,22.4624,29.622019107818602,22.2564C29.414719107818602,22.0503,29.134419107818605,21.9345,28.842119107818604,21.9344C28.842119107818604,21.9344,28.842119107818604,21.9344,28.842119107818604,21.9344ZM9.554639107818604,7.90625C9.554639107818604,7.90625,27.548419107818603,7.96563,27.548419107818603,7.96563C27.548419107818603,7.96563,25.785919107818604,17.834400000000002,25.785919107818604,17.834400000000002C25.785919107818604,17.834400000000002,11.651529107818604,17.8594,11.651529107818604,17.8594C11.651529107818604,17.8594,9.554639107818604,7.90625,9.554639107818604,7.90625C9.554639107818604,7.90625,9.554639107818604,7.90625,9.554639107818604,7.90625ZM12.582719107818603,27.0532C12.039019107818604,27.0532,11.595259107818604,26.6093,11.595259107818604,26.0656C11.595259107818604,25.5219,12.039019107818604,25.0781,12.582719107818603,25.0781C13.126519107818604,25.0781,13.570319107818603,25.5219,13.570319107818603,26.0656C13.570319107818603,26.3276,13.466219107818603,26.5787,13.281019107818604,26.7639C13.095919107818604,26.9491,12.844719107818603,27.0532,12.582719107818603,27.0532C12.582719107818603,27.0532,12.582719107818603,27.0532,12.582719107818603,27.0532ZM22.742119107818603,27.0532C22.198419107818605,27.0532,21.754619107818602,26.6093,21.754619107818602,26.0656C21.754619107818602,25.5219,22.198419107818605,25.0781,22.742119107818603,25.0781C23.285919107818604,25.0781,23.729619107818603,25.5219,23.729619107818603,26.0656C23.729619107818603,26.3276,23.625619107818604,26.5787,23.440419107818602,26.7639C23.255219107818604,26.9491,23.004019107818603,27.0532,22.742119107818603,27.0532C22.742119107818603,27.0532,22.742119107818603,27.0532,22.742119107818603,27.0532Z" fill="#000000" fill-opacity="0.8500000238418579"/></g></g></svg>