<svg xmlns="http://www.w3.org/2000/svg" xmlns:xlink="http://www.w3.org/1999/xlink" fill="none" version="1.1" width="28" height="28" viewBox="0 0 28 28"><defs><clipPath id="master_svg0_56_20069"><rect x="0" y="0" width="28" height="28" rx="0"/></clipPath></defs><g clip-path="url(#master_svg0_56_20069)"><g><path d="M28,14C28,6.26818,21.7318,0,14,0C6.26818,0,0,6.26818,0,14C0,21.7318,6.26818,28,14,28C21.7318,28,28,21.7318,28,14ZM10.2404,14L10.2404,11.3209L11.8822,11.3209L11.8822,9.70073C11.8822,7.51545,12.5351,5.94109,14.9278,5.94109L17.7736,5.94109L17.7736,8.61382L15.7704,8.61382C14.7662,8.61382,14.5384,9.28073,14.5384,9.97945L14.5384,11.3209L17.626,11.3209L17.2047,14L14.5384,14L14.5384,22.0805L11.8822,22.0805L11.8822,14L10.2404,14Z" fill="#FFFFFF" fill-opacity="1"/></g></g></svg>