<svg xmlns="http://www.w3.org/2000/svg" xmlns:xlink="http://www.w3.org/1999/xlink" fill="none" version="1.1" width="28" height="28" viewBox="0 0 28 28"><defs><clipPath id="master_svg0_56_20076"><rect x="0" y="0" width="28" height="28" rx="0"/></clipPath></defs><g clip-path="url(#master_svg0_56_20076)"><g><path d="M14,28C6.2678,28,0,21.7322,0,14C0,6.2678,6.2678,0,14,0C21.7322,0,28,6.2678,28,14C28,21.7322,21.7322,28,14,28ZM10.2331,20.1693L10.2331,10.8659L7.43307,10.8659L7.43307,20.1693L10.2331,20.1693ZM8.83307,6.81333C7.93007,6.81333,7.34067,7.441,7.35887,8.27867C7.3402,9.0776,7.93007,9.7244,8.81487,9.7244C9.7356,9.7244,10.3255,9.0776,10.3255,8.2782C10.3068,7.441,9.7356,6.81333,8.83307,6.81333ZM12.481,20.1693L15.281,20.1693L15.281,14.8041C15.281,14.5381,15.3183,14.2525,15.3921,14.0807C15.5759,13.5487,16.0365,12.9967,16.8107,12.9967C17.8234,12.9967,18.2294,13.8147,18.2294,15.0136L18.2294,20.1693L21.0294,20.1693L21.0294,14.6519C21.0294,11.9126,19.6481,10.6563,17.8052,10.6563C16.3133,10.6563,15.3921,11.5509,15.0234,12.1403L14.9679,12.1403L14.8391,10.8659L12.4073,10.8659C12.4441,11.6839,12.481,12.6733,12.481,13.8339L12.481,20.1693Z" fill="#FFFFFF" fill-opacity="1"/></g></g></svg>