<svg xmlns="http://www.w3.org/2000/svg" xmlns:xlink="http://www.w3.org/1999/xlink" fill="none" version="1.1" width="20" height="20" viewBox="0 0 20 20"><defs><clipPath id="master_svg0_56_23199"><rect x="0" y="0" width="20" height="20" rx="0"/></clipPath></defs><g clip-path="url(#master_svg0_56_23199)"><g><path d="M8.92872,10C8.92872,10.2842,9.04156,10.5567,9.2425,10.7576C9.44344,10.9586,9.71595,11.0714,10.0001,11.0714C10.2843,11.0714,10.5568,10.9586,10.7577,10.7576C10.9587,10.5567,11.0716,10.2842,11.0716,10C11.0716,9.71583,10.9587,9.44333,10.7577,9.24239C10.5568,9.04144,10.2843,8.92856,10.0001,8.92856C9.71595,8.92856,9.44344,9.04144,9.2425,9.24239C9.04156,9.44333,8.92872,9.71583,8.92872,10C8.92872,10,8.92872,10,8.92872,10ZM13.393,10C13.393,10.2842,13.5059,10.5567,13.7068,10.7576C13.9077,10.9586,14.1803,11.0714,14.4644,11.0714C14.7486,11.0714,15.0211,10.9586,15.222,10.7576C15.4229,10.5567,15.5358,10.2842,15.5358,10C15.5358,9.71583,15.4229,9.44333,15.222,9.24239C15.0211,9.04144,14.7486,8.92856,14.4644,8.92856C14.1803,8.92856,13.9077,9.04144,13.7068,9.24239C13.5059,9.44333,13.393,9.71583,13.393,10C13.393,10,13.393,10,13.393,10ZM4.46441,10C4.46441,10.2842,4.57729,10.5567,4.77823,10.7576C4.97916,10.9586,5.25168,11.0714,5.53584,11.0714C5.82,11.0714,6.0925,10.9586,6.29345,10.7576C6.49439,10.5567,6.60728,10.2842,6.60728,10C6.60728,9.71583,6.49439,9.44333,6.29345,9.24239C6.0925,9.04144,5.82,8.92856,5.53584,8.92856C5.25168,8.92856,4.97916,9.04144,4.77823,9.24239C4.57729,9.44333,4.46441,9.71583,4.46441,10C4.46441,10,4.46441,10,4.46441,10ZM19.2233,6.125C18.7189,4.92634,17.9957,3.85044,17.0738,2.92634C16.1584,2.00758,15.0716,1.27728,13.8751,0.776783C12.6474,0.261161,11.3439,0,10.0001,0C10.0001,0,9.9555,0,9.9555,0C8.60283,0.00669644,7.29256,0.274553,6.06039,0.801339C4.87414,1.30697,3.79759,2.03857,2.89075,2.95536C1.97781,3.87723,1.26129,4.94866,0.76575,6.14283C0.252359,7.37944,-0.00656978,8.69422,0.000126636,10.0469C0.00770083,11.5971,0.374439,13.1243,1.07156,14.5089C1.07156,14.5089,1.07156,17.9018,1.07156,17.9018C1.07156,18.1741,1.17973,18.4353,1.37229,18.6278C1.56486,18.8204,1.82602,18.9286,2.09834,18.9286C2.09834,18.9286,5.49343,18.9286,5.49343,18.9286C6.878,19.6257,8.40533,19.9924,9.9555,20C9.9555,20,10.0023,20,10.0023,20C11.3394,20,12.6363,19.7411,13.8573,19.2344C15.0477,18.7398,16.1304,18.0181,17.0448,17.1094C17.9667,16.1964,18.6921,15.1294,19.1988,13.9397C19.7256,12.7076,19.9934,11.3973,20.0001,10.0447C20.0068,8.68528,19.7434,7.36606,19.2233,6.125C19.2233,6.125,19.2233,6.125,19.2233,6.125ZM15.8506,15.9018C14.2858,17.4509,12.2099,18.3036,10.0001,18.3036C10.0001,18.3036,9.96217,18.3036,9.96217,18.3036C8.61622,18.2969,7.27917,17.9621,6.09833,17.3326C6.09833,17.3326,5.91083,17.2322,5.91083,17.2322C5.91083,17.2322,2.76798,17.2322,2.76798,17.2322C2.76798,17.2322,2.76798,14.0893,2.76798,14.0893C2.76798,14.0893,2.66754,13.9018,2.66754,13.9018C2.03807,12.721,1.70325,11.3839,1.69656,10.0379C1.68763,7.8125,2.53807,5.72322,4.09834,4.14956C5.65639,2.57589,7.73895,1.70536,9.96439,1.69643C9.96439,1.69643,10.0023,1.69643,10.0023,1.69643C11.1184,1.69643,12.201,1.91294,13.2211,2.34152C14.2167,2.75893,15.1095,3.35937,15.8773,4.12723C16.643,4.89286,17.2457,5.78794,17.6631,6.7835C18.0961,7.81472,18.3126,8.9085,18.3082,10.0379C18.2948,12.2612,17.422,14.3438,15.8506,15.9018C15.8506,15.9018,15.8506,15.9018,15.8506,15.9018Z" fill="#FFFFFF" fill-opacity="1"/></g></g></svg>