<svg xmlns="http://www.w3.org/2000/svg" xmlns:xlink="http://www.w3.org/1999/xlink" fill="none" version="1.1" width="32" height="32" viewBox="0 0 32 32"><defs><clipPath id="master_svg0_56_23231"><rect x="0" y="0" width="32" height="32" rx="0"/></clipPath></defs><g clip-path="url(#master_svg0_56_23231)"><g><path d="M17.071143749999997,3.14453125C17.071143749999997,3.14453125,14.92824375,3.14453125,14.92824375,3.14453125C14.73774375,3.14453125,14.64254375,3.23976945,14.64254375,3.43024625C14.64254375,3.43024625,14.64254375,14.64453125,14.64254375,14.64453125C14.64254375,14.64453125,4.00055875,14.64453125,4.00055875,14.64453125C3.81008195,14.64453125,3.71484375,14.73973125,3.71484375,14.93023125C3.71484375,14.93023125,3.71484375,17.07303125,3.71484375,17.07303125C3.71484375,17.26353125,3.81008195,17.35883125,4.00055875,17.35883125C4.00055875,17.35883125,14.64254375,17.35883125,14.64254375,17.35883125C14.64254375,17.35883125,14.64254375,28.57303125,14.64254375,28.57303125C14.64254375,28.76353125,14.73774375,28.85883125,14.92824375,28.85883125C14.92824375,28.85883125,17.071143749999997,28.85883125,17.071143749999997,28.85883125C17.261643749999998,28.85883125,17.35684375,28.76353125,17.35684375,28.57303125C17.35684375,28.57303125,17.35684375,17.35883125,17.35684375,17.35883125C17.35684375,17.35883125,28.00054375,17.35883125,28.00054375,17.35883125C28.19104375,17.35883125,28.28634375,17.26353125,28.28634375,17.07303125C28.28634375,17.07303125,28.28634375,14.93023125,28.28634375,14.93023125C28.28634375,14.73973125,28.19104375,14.64453125,28.00054375,14.64453125C28.00054375,14.64453125,17.35684375,14.64453125,17.35684375,14.64453125C17.35684375,14.64453125,17.35684375,3.43024625,17.35684375,3.43024625C17.35684375,3.23976945,17.261643749999998,3.14453125,17.071143749999997,3.14453125C17.071143749999997,3.14453125,17.071143749999997,3.14453125,17.071143749999997,3.14453125Z" fill="#000000" fill-opacity="1"/></g></g></svg>