<svg xmlns="http://www.w3.org/2000/svg" xmlns:xlink="http://www.w3.org/1999/xlink" fill="none" version="1.1" width="82.03662109375" height="40" viewBox="0 0 82.03662109375 40"><g><g><path d="M61.50048828125,20Q61.50048828125,20.491,61.47638828125,20.9814Q61.45228828125,21.4717,61.40418828125,21.9603Q61.35608828125,22.4489,61.28398828125,22.9346Q61.21198828125,23.4203,61.11618828125,23.9018Q61.02038828125,24.3833,60.90108828125,24.8596Q60.78178828125,25.3359,60.63928828125,25.8057Q60.49678828125,26.2755,60.33138828125,26.7378Q60.16598828125,27.2001,59.97808828125,27.6537Q59.79018828125,28.1073,59.58028828125,28.5511Q59.37038828125,28.9949,59.13888828125,29.4279Q58.90748828125,29.8609,58.65508828125,30.2821Q58.40268828125,30.7032,58.12988828125,31.1114Q57.85708828125,31.5196,57.56458828125,31.914Q57.27218828125,32.3083,56.96068828125,32.6879Q56.64918828125,33.0674,56.31948828125,33.4312Q55.98978828125,33.795,55.64258828125,34.1421Q55.29548828125,34.4893,54.93168828125,34.819Q54.56788828125,35.1487,54.18838828125,35.4602Q53.80878828125,35.7717,53.41448828125,36.0641Q53.02008828125,36.3566,52.61188828125,36.6294Q52.203688281249995,36.9022,51.78248828125,37.1546Q51.36138828125,37.407,50.92838828125,37.6384Q50.49538828125,37.8699,50.051588281250005,38.0798Q49.607788281249995,38.2897,49.15418828125,38.4776Q48.70058828125,38.6655,48.23828828125,38.8309Q47.77598828125,38.9963,47.30618828125,39.1388Q46.836388281249995,39.2813,46.36008828125,39.4006Q45.88378828125,39.5199,45.40228828125,39.6157Q44.92078828125,39.7115,44.43508828125,39.7835Q43.949388281249995,39.8556,43.460788281250004,39.9037Q42.97218828125,39.9518,42.48188828125,39.9759Q41.99148828125,40,41.50048828125,40Q41.00948828125,40,40.51908828125,39.9759Q40.02878828125,39.9518,39.540188281249996,39.9037Q39.05148828125,39.8556,38.56588828125,39.7835Q38.08018828125,39.7115,37.59868828125,39.6157Q37.11718828125,39.5199,36.64088828125,39.4006Q36.16458828125,39.2813,35.69478828125,39.1388Q35.22498828125,38.9963,34.76268828125,38.8309Q34.30038828125,38.6655,33.84678828125,38.4776Q33.39318828125,38.2897,32.94938828125,38.0798Q32.50558828125,37.8699,32.07258828125,37.6384Q31.63958828125,37.407,31.21842828125,37.1546Q30.79730828125,36.9022,30.38907828125,36.6294Q29.980848281249997,36.3566,29.58649828125,36.0641Q29.19214828125,35.7717,28.81261828125,35.4602Q28.43309828125,35.1487,28.06930828125,34.819Q27.70551828125,34.4893,27.35834828125,34.1421Q27.01117828125,33.795,26.681468281249998,33.4312Q26.35174828125,33.0674,26.04027828125,32.6879Q25.72880828125,32.3083,25.43633828125,31.914Q25.14386828125,31.5196,24.87109828125,31.1114Q24.59832828125,30.7032,24.34591828125,30.2821Q24.09350828125,29.8609,23.86205828125,29.4279Q23.63061828125,28.9949,23.42069828125,28.5511Q23.21078828125,28.1073,23.02289828125,27.6537Q22.83500828125,27.2001,22.66960828125,26.7378Q22.50419828125,26.2755,22.36168128125,25.8057Q22.21915928125,25.3359,22.09986328125,24.8596Q21.98056628125,24.3833,21.88478228125,23.9018Q21.78899828125,23.4203,21.71695828125,22.9346Q21.64491728125,22.4489,21.59679378125,21.9603Q21.54866998125,21.4717,21.52457918125,20.9814Q21.50048828125,20.491,21.50048828125,20Q21.50048828125,19.509,21.52457918125,19.0186Q21.54866998125,18.5283,21.59679378125,18.0397Q21.64491728125,17.551,21.71695828125,17.0654Q21.78899828125,16.5797,21.88478228125,16.0982Q21.98056628125,15.6167,22.09986328125,15.1404Q22.21915928125,14.6641,22.36168128125,14.1943Q22.50419828125,13.7245,22.66960828125,13.2622Q22.83500828125,12.7999,23.02289828125,12.3463Q23.21078828125,11.8927,23.42069828125,11.4489Q23.63061828125,11.0051,23.86205828125,10.5721Q24.09350828125,10.1391,24.34591828125,9.71794Q24.59832828125,9.29682,24.87109828125,8.88859Q25.14386828125,8.48036,25.43633828125,8.08601Q25.72880828125,7.69166,26.04027828125,7.31213Q26.35174828125,6.93261,26.681468281249998,6.56882Q27.01117828125,6.20503,27.35834828125,5.85786Q27.70551828125,5.51069,28.06930828125,5.18098Q28.43309828125,4.85126,28.81261828125,4.53979Q29.19214828125,4.22832,29.58649828125,3.93585Q29.980848281249997,3.64338,30.38907828125,3.37061Q30.79730828125,3.09784,31.21842828125,2.84543Q31.63958828125,2.59302,32.07258828125,2.36157Q32.50558828125,2.13013,32.94938828125,1.92021Q33.39318828125,1.7103,33.84678828125,1.52241Q34.30038828125,1.33452,34.76268828125,1.16912Q35.22498828125,1.00371,35.69478828125,0.861193Q36.16458828125,0.718671,36.64088828125,0.599375Q37.11718828125,0.480078,37.59868828125,0.384294Q38.08018828125,0.28851,38.56588828125,0.21647Q39.05148828125,0.144429,39.540188281249996,0.0963055Q40.02878828125,0.0481817,40.51908828125,0.0240909Q41.00948828125,0,41.50048828125,0Q41.99148828125,0,42.48188828125,0.0240909Q42.97218828125,0.0481817,43.460788281250004,0.0963055Q43.949388281249995,0.144429,44.43508828125,0.21647Q44.92078828125,0.28851,45.40228828125,0.384294Q45.88378828125,0.480078,46.36008828125,0.599375Q46.836388281249995,0.718671,47.30618828125,0.861193Q47.77598828125,1.00371,48.23828828125,1.16912Q48.70058828125,1.33452,49.15418828125,1.52241Q49.607788281249995,1.7103,50.051588281250005,1.92021Q50.49538828125,2.13013,50.92838828125,2.36157Q51.36138828125,2.59302,51.78248828125,2.84543Q52.203688281249995,3.09784,52.61188828125,3.37061Q53.02008828125,3.64338,53.41448828125,3.93585Q53.80878828125,4.22832,54.18838828125,4.53979Q54.56788828125,4.85126,54.93168828125,5.18098Q55.29548828125,5.51069,55.64258828125,5.85786Q55.98978828125,6.20503,56.31948828125,6.56882Q56.64918828125,6.93261,56.96068828125,7.31213Q57.27218828125,7.69166,57.56458828125,8.08601Q57.85708828125,8.48036,58.12988828125,8.88859Q58.40268828125,9.29682,58.65508828125,9.71794Q58.90748828125,10.1391,59.13888828125,10.5721Q59.37038828125,11.0051,59.58028828125,11.4489Q59.79018828125,11.8927,59.97808828125,12.3463Q60.16598828125,12.7999,60.33138828125,13.2622Q60.49678828125,13.7245,60.63928828125,14.1943Q60.78178828125,14.6641,60.90108828125,15.1404Q61.02038828125,15.6167,61.11618828125,16.0982Q61.21198828125,16.5797,61.28398828125,17.0654Q61.35608828125,17.551,61.40418828125,18.0397Q61.45228828125,18.5283,61.47638828125,19.0186Q61.50048828125,19.509,61.50048828125,20ZM59.50048828125,20Q59.50048828125,19.5581,59.47878828125,19.1168Q59.45708828125,18.6754,59.41378828125,18.2357Q59.37048828125,17.7959,59.30568828125,17.3589Q59.24078828125,16.9218,59.15458828125,16.4884Q59.06838828125,16.055,58.96108828125,15.6264Q58.85368828125,15.1977,58.72538828125,14.7749Q58.59718828125,14.352,58.44828828125,13.936Q58.29938828125,13.5199,58.13028828125,13.1117Q57.96118828125,12.7035,57.77228828125,12.304Q57.58338828125,11.9046,57.37508828125,11.5149Q57.16678828125,11.1252,56.93958828125,10.7461Q56.71238828125,10.3671,56.46688828125,9.99973Q56.22148828125,9.63233,55.95818828125,9.27741Q55.69498828125,8.92249,55.41468828125,8.58092Q55.13438828125,8.23935,54.83758828125,7.91194Q54.54088828125,7.58453,54.22838828125,7.27208Q53.91598828125,6.95962,53.58858828125,6.66288Q53.26108828125,6.36613,52.91958828125,6.08581Q52.57798828125,5.80549,52.22308828125,5.54226Q51.86818828125,5.27904,51.500788281249996,5.03355Q51.13338828125,4.78805,50.75428828125,4.56088Q50.37528828125,4.33372,49.98558828125,4.12542Q49.59588828125,3.91712,49.19648828125,3.72819Q48.79698828125,3.53927,48.38878828125,3.37017Q47.98058828125,3.20107,47.56448828125,3.05221Q47.148488281249996,2.90334,46.72558828125,2.77507Q46.30278828125,2.6468,45.874088281249996,2.53944Q45.44548828125,2.43207,45.01208828125,2.34586Q44.578688281249995,2.25966,44.14158828125,2.19482Q43.70458828125,2.12999,43.26478828125,2.08668Q42.825088281250004,2.04336,42.38368828125,2.02168Q41.942388281250004,2,41.50048828125,2Q41.058588281249996,2,40.61728828125,2.02168Q40.175888281249996,2.04336,39.73618828125,2.08668Q39.29638828125,2.12999,38.85928828125,2.19482Q38.422288281250005,2.25966,37.98888828125,2.34587Q37.55548828125,2.43207,37.126888281250004,2.53944Q36.69818828125,2.6468,36.27538828125,2.77507Q35.852488281250004,2.90334,35.43648828125,3.05221Q35.02038828125,3.20107,34.61218828125,3.37017Q34.20398828125,3.53927,33.80448828125,3.72819Q33.40508828125,3.91712,33.01538828125,4.12542Q32.62568828125,4.33372,32.24658828125,4.56088Q31.86758828125,4.78805,31.50021828125,5.03355Q31.13281828125,5.27904,30.77789828125,5.54226Q30.42297828125,5.80549,30.08140828125,6.08581Q29.73982828125,6.36613,29.41242828125,6.66288Q29.08501828125,6.95962,28.77256828125,7.27208Q28.46010828125,7.58453,28.16336828125,7.91194Q27.86661828125,8.23935,27.586298281250002,8.58092Q27.30597828125,8.92249,27.04274828125,9.27741Q26.779528281250002,9.63233,26.534038281249998,9.99973Q26.28853828125,10.3671,26.06136828125,10.7461Q25.83419828125,11.1252,25.62590828125,11.5149Q25.41760828125,11.9046,25.22867828125,12.304Q25.039758281250002,12.7035,24.87065828125,13.1117Q24.70155828125,13.5199,24.55269828125,13.936Q24.40382828125,14.352,24.27555828125,14.7749Q24.14728828125,15.1977,24.03992828125,15.6264Q23.93255828125,16.055,23.846348281250002,16.4884Q23.76014828125,16.9218,23.69530828125,17.3589Q23.63047828125,17.7959,23.587158281249998,18.2357Q23.54384828125,18.6754,23.52216828125,19.1168Q23.50048828125,19.5581,23.50048828125,20Q23.50048828125,20.4419,23.52216828125,20.8832Q23.54384828125,21.3246,23.587158281249998,21.7643Q23.63047828125,22.2041,23.69530828125,22.6411Q23.76014828125,23.0782,23.846348281250002,23.5116Q23.93255828125,23.945,24.03992828125,24.3736Q24.14728828125,24.8023,24.27555828125,25.2251Q24.40382828125,25.648,24.55269828125,26.064Q24.70155828125,26.4801,24.87065828125,26.8883Q25.039758281250002,27.2965,25.22867828125,27.696Q25.41760828125,28.0954,25.62590828125,28.4851Q25.83419828125,28.8748,26.06136828125,29.2538Q26.28853828125,29.6329,26.534038281249998,30.0003Q26.779528281250002,30.3677,27.04274828125,30.7226Q27.30597828125,31.0775,27.586298281250002,31.4191Q27.86661828125,31.7607,28.16336828125,32.0881Q28.46010828125,32.4155,28.77256828125,32.7279Q29.08501828125,33.0404,29.41242828125,33.3371Q29.73983828125,33.6339,30.08140828125,33.9142Q30.42297828125,34.1945,30.77789828125,34.4577Q31.13281828125,34.721,31.50021828125,34.9664Q31.86758828125,35.2119,32.24658828125,35.4391Q32.62568828125,35.6663,33.01538828125,35.8746Q33.40508828125,36.0829,33.80448828125,36.2718Q34.20398828125,36.4607,34.61218828125,36.6298Q35.02038828125,36.7989,35.43648828125,36.9478Q35.852488281250004,37.0967,36.27538828125,37.2249Q36.69818828125,37.3532,37.126888281250004,37.4606Q37.55548828125,37.5679,37.98888828125,37.6541Q38.422288281250005,37.7403,38.85928828125,37.8052Q39.29638828125,37.87,39.73618828125,37.9133Q40.175888281249996,37.9566,40.61728828125,37.9783Q41.058588281249996,38,41.50048828125,38Q41.942388281250004,38,42.38368828125,37.9783Q42.825088281250004,37.9566,43.26478828125,37.9133Q43.70458828125,37.87,44.14158828125,37.8052Q44.578688281249995,37.7403,45.01208828125,37.6541Q45.44548828125,37.5679,45.874088281249996,37.4606Q46.30278828125,37.3532,46.72558828125,37.2249Q47.148488281249996,37.0967,47.56448828125,36.9478Q47.98058828125,36.7989,48.38878828125,36.6298Q48.79698828125,36.4607,49.19648828125,36.2718Q49.59588828125,36.0829,49.98558828125,35.8746Q50.37528828125,35.6663,50.75428828125,35.4391Q51.13338828125,35.2119,51.500788281249996,34.9664Q51.86818828125,34.721,52.22308828125,34.4577Q52.57798828125,34.1945,52.91958828125,33.9142Q53.26108828125,33.6339,53.58858828125,33.3371Q53.91598828125,33.0404,54.22838828125,32.7279Q54.54088828125,32.4155,54.83758828125,32.0881Q55.13438828125,31.7607,55.41468828125,31.4191Q55.69498828125,31.0775,55.95818828125,30.7226Q56.22148828125,30.3677,56.46688828125,30.0003Q56.71238828125,29.6329,56.93958828125,29.2538Q57.16678828125,28.8748,57.37508828125,28.4851Q57.58338828125,28.0954,57.77228828125,27.696Q57.96118828125,27.2965,58.13028828125,26.8883Q58.29938828125,26.4801,58.44828828125,26.064Q58.59718828125,25.648,58.72538828125,25.2251Q58.85368828125,24.8023,58.96108828125,24.3736Q59.06838828125,23.945,59.15458828125,23.5116Q59.24078828125,23.0782,59.30568828125,22.6411Q59.37048828125,22.2041,59.41378828125,21.7643Q59.45708828125,21.3246,59.47878828125,20.8832Q59.50048828125,20.4419,59.50048828125,20Z" fill="#EBB069" fill-opacity="1"/></g><g><ellipse cx="41.50048828125" cy="20" rx="15" ry="15" fill="#EBB069" fill-opacity="1"/><path d="M56.50048828125,20Q56.50048828125,20.3682,56.482388281249996,20.736Q56.464388281249995,21.1038,56.428288281250005,21.4703Q56.39218828125,21.8367,56.338088281249995,22.201Q56.28408828125,22.5652,56.21228828125,22.9264Q56.14038828125,23.2875,56.05098828125,23.6447Q55.96148828125,24.0019,55.85458828125,24.3543Q55.74768828125,24.7066,55.62368828125,25.0533Q55.49958828125,25.4,55.35868828125,25.7402Q55.21778828125,26.0804,55.060288281249996,26.4133Q54.90288828125,26.7462,54.72928828125,27.0709Q54.55568828125,27.3957,54.366388281249996,27.7115Q54.17708828125,28.0274,53.97248828125,28.3335Q53.76798828125,28.6397,53.548588281250005,28.9355Q53.32928828125,29.2313,53.09568828125,29.5159Q52.862088281249996,29.8005,52.61478828125,30.0734Q52.367488281250004,30.3462,52.10708828125,30.6066Q51.846688281249996,30.867,51.57388828125,31.1143Q51.30098828125,31.3616,51.01638828125,31.5952Q50.731788281250005,31.8288,50.435988281250005,32.048100000000005Q50.140188281250005,32.2675,49.83398828125,32.472Q49.52788828125,32.6766,49.21198828125,32.865899999999996Q48.896188281250005,33.0552,48.57138828125,33.2288Q48.24668828125,33.4024,47.91378828125,33.559799999999996Q47.58088828125,33.7173,47.24068828125,33.8582Q46.90048828125,33.9991,46.55378828125,34.1232Q46.20708828125,34.2472,45.854788281249995,34.3541Q45.50238828125,34.461,45.14518828125,34.5505Q44.78798828125,34.6399,44.42688828125,34.7118Q44.065688281250004,34.7836,43.70148828125,34.837599999999995Q43.33718828125,34.8917,42.97078828125,34.927800000000005Q42.60428828125,34.963899999999995,42.236488281250004,34.981899999999996Q41.86868828125,35,41.50048828125,35Q41.13228828125,35,40.764488281249996,34.981899999999996Q40.39668828125,34.963899999999995,40.03018828125,34.927800000000005Q39.66378828125,34.8917,39.29948828125,34.837599999999995Q38.935288281249996,34.7836,38.57408828125,34.7118Q38.21298828125,34.6399,37.85578828125,34.5505Q37.49858828125,34.461,37.14618828125,34.3541Q36.79388828125,34.2472,36.44713828125,34.1232Q36.10043828125,33.9991,35.76023828125,33.8582Q35.42003828125,33.7173,35.08715828125,33.559799999999996Q34.75428828125,33.4024,34.429538281250004,33.2288Q34.10478828125,33.0552,33.78894828125,32.865899999999996Q33.47310828125,32.6766,33.16693828125,32.472Q32.86075828125,32.2675,32.56499828125,32.048100000000005Q32.26923828125,31.8288,31.984588281249998,31.5952Q31.69993828125,31.3616,31.42709828125,31.1143Q31.15426828125,30.867,30.89388828125,30.6066Q30.633508281250002,30.3462,30.38621828125,30.0734Q30.13893828125,29.8005,29.90532828125,29.5159Q29.67172828125,29.2313,29.45237828125,28.9355Q29.23301828125,28.6397,29.02844828125,28.3335Q28.82386828125,28.0274,28.63455828125,27.7115Q28.44524828125,27.3957,28.27166828125,27.0709Q28.09808828125,26.7462,27.94064828125,26.4133Q27.78320828125,26.0804,27.64229828125,25.7402Q27.50137828125,25.4,27.37732728125,25.0533Q27.25327428125,24.7066,27.14638328125,24.3543Q27.03949228125,24.0019,26.95001928125,23.6447Q26.86054728125,23.2875,26.78870928125,22.9264Q26.71687128125,22.5652,26.66284028125,22.201Q26.60881028125,21.8367,26.57271738125,21.4703Q26.53662458125,21.1038,26.51855648125,20.736Q26.50048828125,20.3682,26.50048828125,20Q26.50048828125,19.6318,26.51855648125,19.264Q26.53662458125,18.8962,26.57271738125,18.5297Q26.60881028125,18.1633,26.66284028125,17.799Q26.71687128125,17.4348,26.78870928125,17.0736Q26.86054728125,16.7125,26.95001928125,16.3553Q27.03949228125,15.9981,27.14638328125,15.6457Q27.25327428125,15.2934,27.37732728125,14.94665Q27.50137828125,14.59995,27.64229828125,14.25975Q27.78320828125,13.91955,27.94064828125,13.58667Q28.09808828125,13.2538,28.27166828125,12.92905Q28.44524828125,12.6043,28.63455828125,12.28846Q28.82386828125,11.97262,29.02844828125,11.666450000000001Q29.23301828125,11.36027,29.45237828125,11.06451Q29.67172828125,10.76875,29.90532828125,10.4841Q30.13893828125,10.199449999999999,30.38621828125,9.92661Q30.633508281250002,9.653780000000001,30.89388828125,9.3934Q31.15426828125,9.13302,31.42709828125,8.88573Q31.69993828125,8.63845,31.984588281249998,8.40484Q32.26922828125,8.171240000000001,32.56499828125,7.951890000000001Q32.86075828125,7.732530000000001,33.16693828125,7.52796Q33.47310828125,7.32338,33.78894828125,7.1340699999999995Q34.10478828125,6.9447600000000005,34.429538281250004,6.77118Q34.75428828125,6.5976,35.08715828125,6.4401600000000006Q35.42003828125,6.28272,35.76023828125,6.1418099999999995Q36.10043828125,6.00089,36.44713828125,5.876839Q36.79388828125,5.752786,37.14618828125,5.645895Q37.49858828125,5.539004,37.85578828125,5.449531Q38.21298828125,5.360059,38.57408828125,5.288221Q38.935288281249996,5.216383,39.29948828125,5.162352Q39.66378828125,5.108322,40.03018828125,5.0722291Q40.39668828125,5.0361363,40.764488281249996,5.0180682Q41.13228828125,5,41.50048828125,5Q41.86868828125,5,42.236488281250004,5.0180682Q42.60428828125,5.0361363,42.97078828125,5.0722291Q43.33718828125,5.108322,43.70148828125,5.162352Q44.065688281250004,5.216383,44.42688828125,5.288221Q44.78798828125,5.360059,45.14518828125,5.449531Q45.50238828125,5.539004,45.854788281249995,5.645895Q46.20708828125,5.752786,46.55378828125,5.876839Q46.90048828125,6.00089,47.24068828125,6.1418099999999995Q47.58088828125,6.28272,47.91378828125,6.4401600000000006Q48.24668828125,6.5976,48.57138828125,6.77118Q48.896188281250005,6.9447600000000005,49.21198828125,7.1340699999999995Q49.52788828125,7.32338,49.83398828125,7.52796Q50.140188281250005,7.732530000000001,50.435988281250005,7.951890000000001Q50.731788281250005,8.171240000000001,51.01638828125,8.40484Q51.30098828125,8.63845,51.57388828125,8.88573Q51.846688281249996,9.13302,52.10708828125,9.3934Q52.367488281250004,9.653780000000001,52.61478828125,9.92661Q52.862088281249996,10.199449999999999,53.09568828125,10.4841Q53.32928828125,10.768740000000001,53.548588281250005,11.06451Q53.76798828125,11.36027,53.97248828125,11.666450000000001Q54.17708828125,11.97262,54.366388281249996,12.28846Q54.55568828125,12.6043,54.72928828125,12.92905Q54.90288828125,13.2538,55.060288281249996,13.58667Q55.21778828125,13.91955,55.35868828125,14.25975Q55.49958828125,14.59995,55.62368828125,14.94665Q55.74768828125,15.2934,55.85458828125,15.6457Q55.96148828125,15.9981,56.05098828125,16.3553Q56.14038828125,16.7125,56.21228828125,17.0736Q56.28408828125,17.4348,56.338088281249995,17.799Q56.39218828125,18.1633,56.428288281250005,18.5297Q56.464388281249995,18.8962,56.482388281249996,19.264Q56.50048828125,19.6318,56.50048828125,20ZM54.50048828125,20Q54.50048828125,19.6809,54.484788281250005,19.362099999999998Q54.46918828125,19.0434,54.43788828125,18.7258Q54.406588281249995,18.4082,54.359788281250005,18.0925Q54.31298828125,17.7768,54.25068828125,17.4638Q54.18838828125,17.1508,54.11088828125,16.8413Q54.03338828125,16.5317,53.940688281250004,16.226300000000002Q53.84808828125,15.9209,53.74058828125,15.6204Q53.63308828125,15.32,53.510888281250004,15.0251Q53.38878828125,14.73028,53.25238828125,14.44178Q53.11588828125,14.15329,52.96548828125,13.87184Q52.814988281249995,13.59039,52.65098828125,13.31666Q52.48688828125,13.04293,52.30958828125,12.77759Q52.13228828125,12.51224,51.94218828125,12.25591Q51.752088281249996,11.99958,51.549588281249996,11.75289Q51.34718828125,11.50619,51.132888281250004,11.26973Q50.91848828125,11.03327,50.69288828125,10.80761Q50.46718828125,10.581949999999999,50.23078828125,10.36763Q49.99428828125,10.15332,49.74758828125,9.950859999999999Q49.50088828125,9.74841,49.24458828125,9.5583Q48.98828828125,9.36819,48.72288828125,9.19089Q48.45758828125,9.01359,48.18378828125,8.84953Q47.91008828125,8.685459999999999,47.62868828125,8.53502Q47.34718828125,8.38459,47.05868828125,8.24814Q46.77018828125,8.11169,46.475388281250005,7.9895700000000005Q46.18048828125,7.86744,45.880088281249996,7.759930000000001Q45.57958828125,7.65241,45.274188281250005,7.55978Q44.96878828125,7.4671400000000006,44.659188281249996,7.38959Q44.349688281249996,7.31205,44.03668828125,7.24979Q43.72368828125,7.187530000000001,43.40798828125,7.14071Q43.09228828125,7.09388,42.77468828125,7.0626Q42.45708828125,7.03132,42.13838828125,7.0156600000000005Q41.81958828125,7,41.50048828125,7Q41.18138828125,7,40.86258828125,7.0156600000000005Q40.54388828125,7.03132,40.22628828125,7.0626Q39.90868828125,7.09388,39.59298828125,7.14071Q39.27728828125,7.187530000000001,38.96428828125,7.24979Q38.651288281250004,7.31205,38.341788281250004,7.38959Q38.03218828125,7.4671400000000006,37.72678828125,7.55978Q37.42138828125,7.65241,37.120888281250004,7.759930000000001Q36.82048828125,7.86744,36.52558828125,7.9895700000000005Q36.23076828125,8.11169,35.94226828125,8.24814Q35.65377828125,8.38459,35.37232828125,8.53502Q35.09087828125,8.685459999999999,34.81714828125,8.84953Q34.54341828125,9.01359,34.278078281250004,9.19089Q34.01272828125,9.3682,33.75639828125,9.5583Q33.50006828125,9.74841,33.25337828125,9.950859999999999Q33.006678281250004,10.15332,32.77021828125,10.36763Q32.53375828125,10.581949999999999,32.30809828125,10.80761Q32.08243828125,11.03327,31.86811828125,11.26973Q31.65380828125,11.50619,31.45134828125,11.75289Q31.24889828125,11.99958,31.05878828125,12.25591Q30.86867828125,12.51224,30.69137828125,12.77759Q30.51407828125,13.04293,30.35001828125,13.31666Q30.18594828125,13.59039,30.03550828125,13.87184Q29.88507828125,14.15329,29.74862828125,14.44178Q29.61217828125,14.73028,29.49005828125,15.0251Q29.367928281250002,15.32,29.26041828125,15.6204Q29.15289828125,15.9209,29.06026828125,16.226300000000002Q28.96762828125,16.5317,28.89007828125,16.8413Q28.81253828125,17.1508,28.75027828125,17.4638Q28.68801828125,17.7768,28.64119828125,18.0925Q28.59436828125,18.4082,28.56308828125,18.7258Q28.53180828125,19.0434,28.51614828125,19.362099999999998Q28.50048828125,19.6809,28.50048828125,20Q28.50048828125,20.3191,28.51614828125,20.637900000000002Q28.53180828125,20.9566,28.56308828125,21.2742Q28.59436828125,21.5918,28.64119828125,21.9075Q28.68801828125,22.2232,28.75027828125,22.5362Q28.81253828125,22.8492,28.89007828125,23.1587Q28.96762828125,23.4683,29.06026828125,23.7737Q29.15289828125,24.0791,29.26041828125,24.3796Q29.367928281250002,24.68,29.49005828125,24.9749Q29.61217828125,25.2697,29.74862828125,25.5582Q29.88507828125,25.8467,30.03550828125,26.1282Q30.18594828125,26.4096,30.35001828125,26.6833Q30.51407828125,26.9571,30.69137828125,27.2224Q30.86868828125,27.4878,31.05878828125,27.7441Q31.24889828125,28.0004,31.45134828125,28.2471Q31.65380828125,28.4938,31.86811828125,28.7303Q32.08243828125,28.9667,32.30809828125,29.1924Q32.53375828125,29.418,32.77021828125,29.6324Q33.006678281250004,29.8467,33.25337828125,30.0491Q33.50006828125,30.2516,33.75639828125,30.4417Q34.01272828125,30.6318,34.278078281250004,30.8091Q34.54341828125,30.9864,34.81714828125,31.1505Q35.09087828125,31.3145,35.37232828125,31.465Q35.65377828125,31.6154,35.94226828125,31.7519Q36.23076828125,31.8883,36.52558828125,32.010400000000004Q36.82048828125,32.1326,37.120888281250004,32.2401Q37.42138828125,32.3476,37.72678828125,32.440200000000004Q38.03218828125,32.5329,38.341788281250004,32.6104Q38.651288281250004,32.6879,38.96428828125,32.7502Q39.27728828125,32.8125,39.59298828125,32.859300000000005Q39.90868828125,32.906099999999995,40.22628828125,32.9374Q40.54388828125,32.9687,40.86258828125,32.984300000000005Q41.18138828125,33,41.50048828125,33Q41.81958828125,33,42.13838828125,32.984300000000005Q42.45708828125,32.9687,42.77468828125,32.9374Q43.09228828125,32.906099999999995,43.40798828125,32.859300000000005Q43.72368828125,32.8125,44.03668828125,32.7502Q44.349688281249996,32.6879,44.659188281249996,32.6104Q44.96878828125,32.5329,45.274188281250005,32.440200000000004Q45.57958828125,32.3476,45.880088281249996,32.2401Q46.18048828125,32.1326,46.475388281250005,32.010400000000004Q46.77018828125,31.8883,47.05868828125,31.7519Q47.34718828125,31.6154,47.62868828125,31.465Q47.91008828125,31.3145,48.18378828125,31.1505Q48.45758828125,30.9864,48.72288828125,30.8091Q48.98828828125,30.6318,49.24458828125,30.4417Q49.50088828125,30.2516,49.74758828125,30.0491Q49.99428828125,29.8467,50.23078828125,29.6324Q50.46718828125,29.418,50.69288828125,29.1924Q50.91848828125,28.9667,51.132888281250004,28.7303Q51.34718828125,28.4938,51.549588281249996,28.2471Q51.752088281249996,28.0004,51.94218828125,27.7441Q52.13228828125,27.4878,52.30958828125,27.2224Q52.48688828125,26.9571,52.65098828125,26.6833Q52.814988281249995,26.4096,52.96548828125,26.1282Q53.11588828125,25.8467,53.25238828125,25.5582Q53.38878828125,25.2697,53.510888281250004,24.9749Q53.63308828125,24.68,53.74058828125,24.3796Q53.84808828125,24.0791,53.940688281250004,23.7737Q54.03338828125,23.4683,54.11088828125,23.1587Q54.18838828125,22.8492,54.25068828125,22.5362Q54.31298828125,22.2232,54.359788281250005,21.9075Q54.406588281249995,21.5918,54.43788828125,21.2742Q54.46918828125,20.9566,54.484788281250005,20.637900000000002Q54.50048828125,20.3191,54.50048828125,20Z" fill="#EBB069" fill-opacity="1"/></g><g><g><path d="M66.50048828125,12Q70.50048828125,15.87451,70.50048828125,19.99951Q70.50048828125,24.124499999999998,66.50048828125,28.5Q73.00048828125,24.499499999999998,72.50048828125,19.99951C72.00048828125,15.49951,66.50048828125,12,66.50048828125,12Z" fill="#EBB069" fill-opacity="1"/><path d="M66.15261328125,12.359142Q70.00048828125,16.0863,70.00048828125,19.99951Q70.00048828125,23.9304,66.13145528125,28.1626L63.72432828125,30.7957L66.76256028125,28.9258Q73.53242828125,24.7592,72.99742828125,19.9443Q72.66555828125,16.95746,69.66652828125,13.95869Q68.19020828125,12.482496,66.76889928125,11.578152L62.62287828125,8.94015L66.15261328125,12.359142ZM69.04176828125,26.042299999999997Q71.00048828125,22.973599999999998,71.00048828125,19.99951Q71.00048828125,17.85858,69.98857828125,15.79439Q71.77079828125,17.96004,72.00354828125,20.05473Q72.34680828125,23.1441,69.04176828125,26.042299999999997Z" fill-rule="evenodd" fill="#EBB069" fill-opacity="1"/></g><g><path d="M75.50048828125,11L77.33045828125,14.65971C78.70074828125,17.40014,78.73911828125,20.61751,77.43456828125,23.3898L75.50048828125,27.5Q82.00048828125,23.499499999999998,81.50048828125,18.99951C81.00048828125,14.49951,75.50048828125,11,75.50048828125,11Z" fill="#EBB069" fill-opacity="1"/><path d="M74.24600828125,9.60918L76.88324828125,14.88333Q77.85957828125,16.83588,77.88561828125,19.01877Q77.91164828125,21.201700000000002,76.98215828125,23.1769L74.33371828125,28.8052L75.76256028125,27.9258Q82.53242828125,23.7592,81.99742828125,18.9443Q81.66555828125,15.957460000000001,78.66652828125,12.95869Q77.19020828125,11.482496,75.76889928125,10.578152L74.24600828125,9.60918ZM78.88554828125,19.00685Q78.85676828125,16.59418,77.77766828125,14.43609L76.89668828125,12.67425Q77.42291828125,13.12934,77.95944828125,13.66582Q80.71041828125,16.41656,81.00354828125,19.05473Q81.40939828125,22.7074,76.71518828125,26.0929L77.88698828125,23.6027Q78.91431828125,21.4195,78.88554828125,19.00685Z" fill-rule="evenodd" fill="#EBB069" fill-opacity="1"/></g></g><g transform="matrix(-1,-5.2146120310681e-8,5.2146120310681e-8,-1,31.07238620914807,57.00000081015223)"><g><path d="M15.53619384765625,29.5Q19.53619384765625,33.37451,19.53619384765625,37.49951Q19.53619384765625,41.6245,15.53619384765625,46Q22.03619384765625,41.9995,21.53619384765625,37.49951C21.03619384765625,32.99951,15.53619384765625,29.5,15.53619384765625,29.5Z" fill="#EBB069" fill-opacity="1"/><path d="M15.18831884765625,29.859142Q19.03619384765625,33.5863,19.03619384765625,37.49951Q19.03619384765625,41.4304,15.16716084765625,45.6626L12.76003384765625,48.2957L15.79826584765625,46.425799999999995Q22.56813384765625,42.2592,22.033133847656252,37.4443Q21.70126384765625,34.45746,18.70223384765625,31.45869Q17.22591384765625,29.982496,15.80460484765625,29.078152L11.65858384765625,26.44015L15.18831884765625,29.859142ZM18.07747384765625,43.5423Q20.03619384765625,40.4736,20.03619384765625,37.49951Q20.03619384765625,35.35858,19.02428384765625,33.29439Q20.806503847656252,35.46004,21.039253847656248,37.55473Q21.38251384765625,40.6441,18.07747384765625,43.5423Z" fill-rule="evenodd" fill="#EBB069" fill-opacity="1"/></g><g><path d="M24.53619384765625,28.5L26.36616384765625,32.15971C27.73645384765625,34.90014,27.77482384765625,38.117509999999996,26.47027384765625,40.8898L24.53619384765625,45Q31.03619384765625,40.9995,30.53619384765625,36.49951C30.03619384765625,31.99951,24.53619384765625,28.5,24.53619384765625,28.5Z" fill="#EBB069" fill-opacity="1"/><path d="M23.28171384765625,27.10918L25.91895384765625,32.38333Q26.895283847656252,34.33588,26.92132384765625,36.51877Q26.94735384765625,38.7017,26.01786384765625,40.6769L23.36942384765625,46.3052L24.79826584765625,45.425799999999995Q31.56813384765625,41.2592,31.033133847656252,36.4443Q30.70126384765625,33.45746,27.70223384765625,30.45869Q26.22591384765625,28.982496,24.80460484765625,28.078152L23.28171384765625,27.10918ZM27.92125384765625,36.50685Q27.892473847656248,34.09418,26.81337384765625,31.93609L25.93239384765625,30.17425Q26.45862384765625,30.62934,26.99515384765625,31.16582Q29.74612384765625,33.91656,30.039253847656248,36.55473Q30.44510384765625,40.2074,25.75089384765625,43.5929L26.922693847656248,41.1027Q27.95002384765625,38.9195,27.92125384765625,36.50685Z" fill-rule="evenodd" fill="#EBB069" fill-opacity="1"/></g></g></g></svg>