<svg xmlns="http://www.w3.org/2000/svg" xmlns:xlink="http://www.w3.org/1999/xlink" fill="none" version="1.1" width="36" height="36" viewBox="0 0 36 36"><defs><clipPath id="master_svg0_56_23203"><rect x="0" y="0" width="36" height="36" rx="0"/></clipPath></defs><g clip-path="url(#master_svg0_56_23203)"><g><path d="M13.822081814193725,15.18876362838745C13.822081814193725,15.18876362838745,33.10778181419373,15.18876362838745,33.10778181419373,15.18876362838745C33.28458181419373,15.18876362838745,33.429181814193726,15.044063628387452,33.429181814193726,14.867263628387452C33.429181814193726,14.867263628387452,33.429181814193726,12.61729362838745,33.429181814193726,12.61729362838745C33.429181814193726,12.440503628387452,33.28458181419373,12.295863628387451,33.10778181419373,12.295863628387451C33.10778181419373,12.295863628387451,13.822081814193725,12.295863628387451,13.822081814193725,12.295863628387451C13.645281814193726,12.295863628387451,13.500581814193726,12.440503628387452,13.500581814193726,12.61729362838745C13.500581814193726,12.61729362838745,13.500581814193726,14.867263628387452,13.500581814193726,14.867263628387452C13.500581814193726,15.044063628387452,13.645281814193726,15.18876362838745,13.822081814193725,15.18876362838745C13.822081814193725,15.18876362838745,13.822081814193725,15.18876362838745,13.822081814193725,15.18876362838745ZM13.500581814193726,23.385163628387453C13.500581814193726,23.561963628387453,13.645281814193726,23.70656362838745,13.822081814193725,23.70656362838745C13.822081814193725,23.70656362838745,33.10778181419373,23.70656362838745,33.10778181419373,23.70656362838745C33.28458181419373,23.70656362838745,33.429181814193726,23.561963628387453,33.429181814193726,23.385163628387453C33.429181814193726,23.385163628387453,33.429181814193726,21.135163628387453,33.429181814193726,21.135163628387453C33.429181814193726,20.958363628387453,33.28458181419373,20.813763628387452,33.10778181419373,20.813763628387452C33.10778181419373,20.813763628387452,13.822081814193725,20.813763628387452,13.822081814193725,20.813763628387452C13.645281814193726,20.813763628387452,13.500581814193726,20.958363628387453,13.500581814193726,21.135163628387453C13.500581814193726,21.135163628387453,13.500581814193726,23.385163628387453,13.500581814193726,23.385163628387453C13.500581814193726,23.385163628387453,13.500581814193726,23.385163628387453,13.500581814193726,23.385163628387453ZM33.75058181419372,3.858363628387451C33.75058181419372,3.858363628387451,2.2506108141937258,3.858363628387451,2.2506108141937258,3.858363628387451C2.0738248141937254,3.858363628387451,1.9291818141937256,4.0030066283874515,1.9291818141937256,4.179792628387451C1.9291818141937256,4.179792628387451,1.9291818141937256,6.429793628387451,1.9291818141937256,6.429793628387451C1.9291818141937256,6.606573628387451,2.0738248141937254,6.751223628387452,2.2506108141937258,6.751223628387452C2.2506108141937258,6.751223628387452,33.75058181419372,6.751223628387452,33.75058181419372,6.751223628387452C33.92738181419372,6.751223628387452,34.07208181419372,6.606573628387451,34.07208181419372,6.429793628387451C34.07208181419372,6.429793628387451,34.07208181419372,4.179792628387451,34.07208181419372,4.179792628387451C34.07208181419372,4.0030066283874515,33.92738181419372,3.858363628387451,33.75058181419372,3.858363628387451C33.75058181419372,3.858363628387451,33.75058181419372,3.858363628387451,33.75058181419372,3.858363628387451ZM33.75058181419372,29.251263628387452C33.75058181419372,29.251263628387452,2.2506108141937258,29.251263628387452,2.2506108141937258,29.251263628387452C2.0738248141937254,29.251263628387452,1.9291818141937256,29.395863628387453,1.9291818141937256,29.572663628387453C1.9291818141937256,29.572663628387453,1.9291818141937256,31.822663628387453,1.9291818141937256,31.822663628387453C1.9291818141937256,31.999463628387453,2.0738248141937254,32.14406362838745,2.2506108141937258,32.14406362838745C2.2506108141937258,32.14406362838745,33.75058181419372,32.14406362838745,33.75058181419372,32.14406362838745C33.92738181419372,32.14406362838745,34.07208181419372,31.999463628387453,34.07208181419372,31.822663628387453C34.07208181419372,31.822663628387453,34.07208181419372,29.572663628387453,34.07208181419372,29.572663628387453C34.07208181419372,29.395863628387453,33.92738181419372,29.251263628387452,33.75058181419372,29.251263628387452C33.75058181419372,29.251263628387452,33.75058181419372,29.251263628387452,33.75058181419372,29.251263628387452ZM3.1506118141937254,23.228463628387452C3.1506118141937254,23.228463628387452,9.430521814193725,18.28246362838745,9.430521814193725,18.28246362838745C9.472801814193726,18.249263628387453,9.506991814193725,18.206863628387453,9.530491814193725,18.15846362838745C9.553991814193726,18.11006362838745,9.566211814193725,18.05696362838745,9.566211814193725,18.00326362838745C9.566211814193725,17.949463628387452,9.553991814193726,17.89636362838745,9.530491814193725,17.84796362838745C9.506991814193725,17.79966362838745,9.472801814193726,17.75726362838745,9.430521814193725,17.72396362838745C9.430521814193725,17.72396362838745,3.1506118141937254,12.773993628387451,3.1506118141937254,12.773993628387451C2.9175748141937254,12.589163628387452,2.572038814193726,12.753903628387452,2.572038814193726,13.05122362838745C2.572038814193726,13.05122362838745,2.572038814193726,22.94716362838745,2.572038814193726,22.94716362838745C2.5720178141937255,23.01426362838745,2.5908798141937255,23.08006362838745,2.626468814193726,23.136963628387452C2.662058814193726,23.19386362838745,2.7129388141937256,23.23956362838745,2.7732928141937254,23.26896362838745C2.8336468141937257,23.298263628387453,2.9010378141937254,23.31006362838745,2.9677618141937256,23.302863628387453C3.034491814193726,23.29566362838745,3.0978518141937257,23.26996362838745,3.1506118141937254,23.228463628387452C3.1506118141937254,23.228463628387452,3.1506118141937254,23.228463628387452,3.1506118141937254,23.228463628387452Z" fill="#000000" fill-opacity="0.8500000238418579"/></g></g></svg>