<svg xmlns="http://www.w3.org/2000/svg" xmlns:xlink="http://www.w3.org/1999/xlink" fill="none" version="1.1" width="17" height="22" viewBox="0 0 17 22"><g><path d="M8.50236,4.60818C10.6417,4.60818,12.3759,6.33517,12.3759,8.46551C12.3759,10.5959,10.6417,12.3228,8.50236,12.3228C6.36306,12.3228,4.62881,10.5959,4.62881,8.46551C4.62881,6.33517,6.36306,4.60818,8.50236,4.60818ZM17,8.4672C16.9998,2.80758,11.5283,-1.25657,6.08054,0.356412C0.632826,1.9694,-1.72003,8.35024,1.38497,13.0906L7.74161,21.5306C7.88556,21.8182,8.1805,22,8.50321,22C8.82592,22,9.12087,21.8182,9.26482,21.5306L15.6334,13.0906C16.4911,11.7585,17,10.1755,17,8.4672Z" fill="#000000" fill-opacity="1"/></g></svg>