<svg xmlns="http://www.w3.org/2000/svg" xmlns:xlink="http://www.w3.org/1999/xlink" fill="none" version="1.1" width="18" height="16" viewBox="0 0 18 16"><g><path d="M18,11.9289L18,15.0721C18,15.5388,17.5941,15.926,17.0705,15.9588C16.6331,15.9863,16.2763,16,16,16C7.1634,16,0,9.63253,0,1.77778C0,1.53219,0.01545,1.215,0.04635,0.826222C0.08337,0.360782,0.51894,0,1.04386,0L4.5801,0C4.83678,0,5.05176,0.172818,5.07753,0.399822C5.10067,0.603618,5.12218,0.767236,5.14207,0.890684C5.34435,2.14642,5.75753,3.34165,6.3487,4.44714C6.44359,4.62458,6.38171,4.83697,6.20185,4.95116L4.04355,6.3216C5.35752,9.04987,7.8189,11.2378,10.8882,12.4058L12.4271,10.4906C12.5572,10.3288,12.799,10.2732,13.001,10.3584C14.2446,10.8835,15.5891,11.2503,17.0016,11.4297C17.1396,11.4473,17.3225,11.4662,17.5502,11.4867C17.8056,11.5096,18,11.7007,18,11.9289Z" fill="#000000" fill-opacity="1"/></g></svg>