<svg xmlns="http://www.w3.org/2000/svg" xmlns:xlink="http://www.w3.org/1999/xlink" fill="none" version="1.1" width="28" height="28" viewBox="0 0 28 28"><defs><clipPath id="master_svg0_56_20067"><rect x="0" y="0" width="28" height="28" rx="0"/></clipPath></defs><g clip-path="url(#master_svg0_56_20067)"><g><path d="M14,0C6.24615,0,0,6.24615,0,14C0,21.7538,6.24615,28,14,28C21.7538,28,28,21.7538,28,14C28,6.24615,21.7538,0,14,0ZM20.7846,10.0154C20.6769,10.1231,20.6769,10.2308,20.5692,10.2308C20.3538,10.4462,20.1385,10.5538,19.9231,10.6615C19.8154,10.6615,19.8154,10.7692,19.8154,10.8769C19.9231,12.0615,19.7077,13.2462,19.2769,14.4308C18.5231,16.4769,16.9077,18.0923,14.9692,19.0615C13.3538,20.0308,11.4154,20.3538,9.6923,19.9231C8.83077,19.8154,8.07692,19.4923,7.43077,19.0615L7.32307,18.9538C7.32307,18.8462,7.43077,18.7385,7.53846,18.7385C8.07692,18.7385,8.61538,18.6308,9.15384,18.4154C9.69231,18.2,10.2308,17.8769,10.6615,17.5538L10.7692,17.4462C10.7692,17.3385,10.7692,17.2308,10.6615,17.2308C10.2308,17.1231,9.90769,16.9077,9.58461,16.6923C9.15384,16.4769,8.83077,16.0462,8.61538,15.6154L8.61538,15.5077C8.61538,15.4,8.72307,15.2923,8.83077,15.2923L9.15384,15.2923C9.26154,15.2923,9.26154,15.2923,9.26154,15.1846C9.36923,15.0769,9.26154,14.9692,9.15384,14.8615C8.72307,14.6461,8.4,14.3231,8.07692,14C7.64615,13.5692,7.43077,13.0308,7.43077,12.4923L7.43077,12.3846Q7.43077,12.2769,7.64615,12.2769C7.75384,12.2769,7.86154,12.3846,7.96923,12.3846L8.18461,12.3846C8.29231,12.3846,8.29231,12.3846,8.4,12.2769C8.50769,12.1692,8.50769,12.0615,8.4,11.9538C7.96923,11.5231,7.64615,10.9846,7.53846,10.3385C7.43077,9.79999,7.53846,9.15384,7.75384,8.61538L7.75384,8.50769C7.53846,8.61538,7.64615,8.61538,7.75384,8.72307C8.50769,9.47692,9.26154,10.1231,10.2308,10.6615C11.3077,11.2,12.4923,11.5231,13.6769,11.5231C13.7846,11.5231,13.8923,11.4154,13.8923,11.3077C13.8923,10.6615,14.1077,8.50769,16.0462,7.96923C17.0154,7.64615,18.2,7.86153,18.9538,8.72307Q19.0615,8.83077,19.1692,8.83076C19.3846,8.83076,19.6,8.72307,19.9231,8.72307C20.1385,8.61538,20.3538,8.61538,20.5692,8.50769L20.7846,8.50769C20.8923,8.50769,20.8923,8.72307,20.8923,8.83076C20.7846,9.04615,20.5692,9.26153,20.3538,9.47692L20.2462,9.58461C20.1385,9.58461,20.1385,9.6923,20.1385,9.8C20.1385,9.90769,20.2462,10.0154,20.3538,10.0154C20.4615,10.0154,20.5692,10.0154,20.7846,9.90769L21,9.90769C20.8923,9.8,20.8923,10.0154,20.7846,10.0154Z" fill="#FFFFFF" fill-opacity="1"/></g></g></svg>