<svg xmlns="http://www.w3.org/2000/svg" xmlns:xlink="http://www.w3.org/1999/xlink" fill="none" version="1.1" width="28" height="28" viewBox="0 0 28 28"><defs><clipPath id="master_svg0_56_20030"><rect x="0" y="0" width="28" height="28" rx="0"/></clipPath></defs><g clip-path="url(#master_svg0_56_20030)"><g><path d="M25.7387,8.0964825C25.457,7.0410125,24.6258,6.2097655,23.573,5.9281255Q21.6617,5.4140625,14,5.4140625Q6.33828,5.4140625,4.42695,5.9253905C3.37148,6.2070315,2.5429690000000003,7.0382825,2.261328,8.0937525Q1.75,10.0078125,1.75,14.0000025Q1.75,17.9921625,2.261328,19.9035625C2.5429690000000003,20.9589625,3.37422,21.7902625,4.42695,22.0718625Q6.33828,22.5859625,14,22.5859625Q21.6617,22.5859625,23.573,22.0718625C24.6285,21.7902625,25.457,20.9589625,25.7387,19.9035625Q26.25,17.9921625,26.25,14.0000025Q26.25,10.0078125,25.7387,8.0964825ZM11.56641,17.6640625L11.56641,10.3359425L17.9102,13.9726525L11.56641,17.6640625Z" fill="#FFFFFF" fill-opacity="1"/></g></g></svg>