<svg xmlns="http://www.w3.org/2000/svg" xmlns:xlink="http://www.w3.org/1999/xlink" fill="none" version="1.1" width="32" height="32" viewBox="0 0 32 32"><defs><clipPath id="master_svg0_56_23114"><rect x="0" y="0" width="32" height="32" rx="0"/></clipPath></defs><g clip-path="url(#master_svg0_56_23114)"><g><path d="M30.20052825279236,28.236526022338868C30.20052825279236,28.236526022338868,20.925628252792357,18.961426022338866,20.925628252792357,18.961426022338866C22.364828252792357,17.10072602233887,23.143328252792358,14.825726022338868,23.143328252792358,12.432926022338867C23.143328252792358,9.568626022338867,22.02562825279236,6.882906022338867,20.00402825279236,4.857916022338867C17.98262825279236,2.832906022338867,15.289828252792358,1.7186260223388672,12.429128252792358,1.7186260223388672C9.56839825279236,1.7186260223388672,6.875538252792358,2.8364860223388675,4.854118252792358,4.857916022338867C2.8291082527923583,6.879336022338867,1.7148282527923584,9.568626022338867,1.7148282527923584,12.432926022338867C1.7148282527923584,15.293626022338866,2.8326882527923587,17.98642602233887,4.854118252792358,20.007826022338868C6.875538252792358,22.032926022338867,9.564828252792358,23.147126022338867,12.429128252792358,23.147126022338867C14.82192825279236,23.147126022338867,17.093428252792357,22.368626022338866,18.95412825279236,20.93292602233887C18.95412825279236,20.93292602233887,28.229128252792357,30.20432602233887,28.229128252792357,30.20432602233887C28.256328252792358,30.231526022338866,28.288628252792357,30.25312602233887,28.32412825279236,30.267826022338866C28.359728252792358,30.282626022338867,28.39772825279236,30.290226022338867,28.436228252792358,30.290226022338867C28.474728252792357,30.290226022338867,28.512828252792357,30.282626022338867,28.54832825279236,30.267826022338866C28.583928252792358,30.25312602233887,28.616128252792358,30.231526022338866,28.643328252792358,30.20432602233887C28.643328252792358,30.20432602233887,30.20052825279236,28.65082602233887,30.20052825279236,28.65082602233887C30.227728252792357,28.62362602233887,30.24932825279236,28.591226022338866,30.264028252792357,28.555826022338866C30.27882825279236,28.520226022338868,30.28642825279236,28.482126022338868,30.28642825279236,28.44362602233887C30.28642825279236,28.405126022338866,30.27882825279236,28.367026022338866,30.264028252792357,28.331526022338867C30.24932825279236,28.295926022338868,30.227728252792357,28.26372602233887,30.20052825279236,28.236526022338868C30.20052825279236,28.236526022338868,30.20052825279236,28.236526022338868,30.20052825279236,28.236526022338868ZM18.08632825279236,18.09012602233887C16.572028252792357,19.60072602233887,14.564828252792358,20.43292602233887,12.429128252792358,20.43292602233887C10.293398252792358,20.43292602233887,8.286258252792358,19.60072602233887,6.771978252792358,18.09012602233887C5.261258252792358,16.575826022338866,4.429108252792359,14.568626022338867,4.429108252792359,12.432926022338867C4.429108252792359,10.297196022338866,5.261258252792358,8.286486022338867,6.771978252792358,6.775776022338867C8.286258252792358,5.265056022338867,10.293398252792358,4.432906022338868,12.429128252792358,4.432906022338868C14.564828252792358,4.432906022338868,16.57552825279236,5.261476022338867,18.08632825279236,6.775776022338867C19.59692825279236,8.290056022338867,20.42912825279236,10.297196022338866,20.42912825279236,12.432926022338867C20.42912825279236,14.568626022338867,19.59692825279236,16.57932602233887,18.08632825279236,18.09012602233887C18.08632825279236,18.09012602233887,18.08632825279236,18.09012602233887,18.08632825279236,18.09012602233887Z" fill="#000000" fill-opacity="0.8500000238418579"/></g></g></svg>