<svg xmlns="http://www.w3.org/2000/svg" xmlns:xlink="http://www.w3.org/1999/xlink" fill="none" version="1.1" width="32" height="32" viewBox="0 0 32 32"><defs><clipPath id="master_svg0_56_23215"><rect x="0" y="0" width="32" height="32" rx="0"/></clipPath></defs><g clip-path="url(#master_svg0_56_23215)"><g><path d="M28.373940871810913,24.981373977661132C27.700340871810912,23.38557397766113,26.722640871810913,21.93607397766113,25.495440871810914,20.713573977661135C24.271940871810912,19.487473977661132,22.822740871810915,18.509973977661133,21.227540871810913,17.834973977661132C21.213240871810914,17.82777397766113,21.198940871810912,17.824173977661133,21.184740871810913,17.81707397766113C23.409740871810914,16.209873977661132,24.85614087181091,13.592173977661133,24.85614087181091,10.638523977661134C24.85614087181091,5.745653977661133,20.891840871810913,1.7813739776611328,15.998940871810913,1.7813739776611328C11.106140871810913,1.7813739776611328,7.141860871810913,5.745653977661133,7.141860871810913,10.638523977661134C7.141860871810913,13.592173977661133,8.588290871810912,16.209873977661132,10.813280871810914,17.820673977661134C10.799000871810913,17.82777397766113,10.784710871810914,17.831373977661134,10.770430871810913,17.838573977661135C9.170430871810913,18.51357397766113,7.734710871810913,19.481373977661132,6.502570871810914,20.717073977661133C5.276540871810913,21.94057397766113,4.299020871810913,23.389773977661132,3.624000871810913,24.984973977661134C2.9608658718109133,26.546573977661133,2.603222871810913,28.22087397766113,2.5704301794109132,29.917073977661133C2.569476946810913,29.955273977661133,2.576162751810913,29.993073977661133,2.590093871810913,30.028673977661132C2.604024971810913,30.064173977661135,2.624919371810913,30.096473977661134,2.651545971810913,30.123773977661134C2.6781728718109132,30.151073977661135,2.709992871810913,30.172773977661134,2.745130871810913,30.18747397766113C2.780268871810913,30.202373977661132,2.818015871810913,30.209973977661132,2.8561448718109133,30.209873977661132C2.8561448718109133,30.209873977661132,4.999000871810913,30.209873977661132,4.999000871810913,30.209873977661132C5.156140871810913,30.209873977661132,5.281140871810913,30.084973977661132,5.284710871810914,29.93137397766113C5.356140871810913,27.174273977661134,6.4632808718109125,24.592173977661133,8.420430871810913,22.634973977661133C10.445430871810913,20.60987397766113,13.134740871810912,19.495673977661134,15.998940871810913,19.495673977661134C18.863340871810912,19.495673977661134,21.552540871810912,20.60987397766113,23.577540871810914,22.634973977661133C25.534740871810914,24.592173977661133,26.641940871810913,27.174273977661134,26.713240871810914,29.93137397766113C26.716840871810913,30.08847397766113,26.841940871810912,30.209873977661132,26.998940871810913,30.209873977661132C26.998940871810913,30.209873977661132,29.141940871810913,30.209873977661132,29.141940871810913,30.209873977661132C29.180040871810913,30.209973977661132,29.217740871810914,30.202373977661132,29.252840871810914,30.18747397766113C29.288040871810914,30.172773977661134,29.319840871810914,30.151073977661135,29.346440871810913,30.123773977661134C29.373140871810914,30.096473977661134,29.393940871810912,30.064173977661135,29.40794087181091,30.028673977661132C29.421840871810915,29.993073977661133,29.428540871810913,29.955273977661133,29.427540871810912,29.917073977661133C29.391840871810913,28.209873977661132,29.038240871810913,26.549173977661134,28.373940871810913,24.981373977661132C28.373940871810913,24.981373977661132,28.373940871810913,24.981373977661132,28.373940871810913,24.981373977661132ZM15.998940871810913,16.781373977661133C14.359640871810914,16.781373977661133,12.816840871810912,16.142073977661134,11.656120871810913,14.981373977661132C10.495420871810914,13.820673977661134,9.856140871810913,12.277773977661132,9.856140871810913,10.638523977661134C9.856140871810913,8.999233977661133,10.495420871810914,7.456373977661133,11.656120871810913,6.295653977661133C12.816840871810912,5.134943977661132,14.359640871810914,4.495653977661133,15.998940871810913,4.495653977661133C17.638240871810915,4.495653977661133,19.181140871810914,5.134943977661132,20.341940871810912,6.295653977661133C21.502640871810915,7.456373977661133,22.141940871810913,8.999233977661133,22.141940871810913,10.638523977661134C22.141940871810913,12.277773977661132,21.502640871810915,13.820673977661134,20.341940871810912,14.981373977661132C19.181140871810914,16.142073977661134,17.638240871810915,16.781373977661133,15.998940871810913,16.781373977661133C15.998940871810913,16.781373977661133,15.998940871810913,16.781373977661133,15.998940871810913,16.781373977661133Z" fill="#000000" fill-opacity="0.8500000238418579"/></g></g></svg>