<svg xmlns="http://www.w3.org/2000/svg" xmlns:xlink="http://www.w3.org/1999/xlink" fill="none" version="1.1" width="80.00000417168962" height="80.0000041716894" viewBox="0 0 80.00000417168962 80.0000041716894"><defs><clipPath id="master_svg0_56_23085"><rect x="80" y="80.0000041716894" width="80" height="80" rx="0"/></clipPath></defs><g transform="matrix(-1,-5.2146120310681e-8,5.2146120310681e-8,-1,159.99999582831015,160.00001251506842)" clip-path="url(#master_svg0_56_23085)"><g><path d="M85,120.0000041716894C85,100.67190417168939,100.6719,85.0000041716894,120,85.0000041716894C139.3282,85.0000041716894,155,100.67190417168939,155,120.0000041716894C155,139.3282041716894,139.3282,155.0000041716894,120,155.0000041716894C100.6719,155.0000041716894,85,139.3282041716894,85,120.0000041716894ZM90.93751,120.0000041716894C90.93751,136.0469041716894,103.9531,149.0624041716894,120,149.0624041716894C136.0469,149.0624041716894,149.0624,136.0469041716894,149.0624,120.0000041716894C149.0624,103.9531041716894,136.0469,90.9375141716894,120,90.9375141716894C103.9531,90.9375141716894,90.93751,103.9531041716894,90.93751,120.0000041716894ZM112.866,105.5843041716894L132.0847,119.4907041716894C132.4284,119.7407041716894,132.4284,120.2562041716894,132.0847,120.5062041716894L112.866,134.4124041716894C112.452,134.70930417168938,111.8738,134.4124041716894,111.8738,133.9047041716894L111.8738,130.2407041716894C111.8738,129.4360041716894,112.2567,128.6860041716894,112.9051,128.2171041716894L124.2644,119.9984041716894L112.9051,111.7796041716894C112.2567,111.3109041716894,111.8738,110.5531041716894,111.8738,109.7562041716894L111.8738,106.0921041716894C111.8733,105.97670417168939,111.9049,105.8634041716894,111.9651,105.7649041716894C112.0251,105.6663041716894,112.1113,105.58630417168939,112.214,105.5337041716894C112.3167,105.4811041716894,112.432,105.4580041716894,112.5471,105.4670041716894C112.6622,105.4759041716894,112.7727,105.5165041716894,112.866,105.5843041716894Z" fill-rule="evenodd" fill="#1A1A1A" fill-opacity="1"/></g></g></svg>