<svg xmlns="http://www.w3.org/2000/svg" xmlns:xlink="http://www.w3.org/1999/xlink" fill="none" version="1.1" width="36" height="36" viewBox="0 0 36 36"><defs><clipPath id="master_svg0_56_23120"><rect x="36" y="0" width="36" height="36" rx="0"/></clipPath></defs><g transform="matrix(-1,0,0,1,72,0)" clip-path="url(#master_svg0_56_23120)"><g><path d="M38.25,18C38.25,9.302340000000001,45.30234,2.25,54,2.25C62.6977,2.25,69.75,9.302340000000001,69.75,18C69.75,26.6977,62.6977,33.75,54,33.75C45.30234,33.75,38.25,26.6977,38.25,18ZM40.92188,18C40.92188,25.2211,46.778909999999996,31.0781,54,31.0781C61.2211,31.0781,67.0781,25.2211,67.0781,18C67.0781,10.77891,61.2211,4.92188,54,4.92188C46.778909999999996,4.92188,40.92188,10.77891,40.92188,18ZM50.789699999999996,11.51295L59.4381,17.7708C59.5928,17.8833,59.5928,18.115299999999998,59.4381,18.227800000000002L50.789699999999996,24.4856C50.6034,24.6192,50.343199999999996,24.4856,50.343199999999996,24.2571L50.343199999999996,22.6083C50.343199999999996,22.2462,50.5155,21.9087,50.8073,21.6977L55.919,17.999299999999998L50.8073,14.3008C50.5155,14.0899,50.343199999999996,13.7489,50.343199999999996,13.3903L50.343199999999996,11.74146C50.343,11.68952,50.3572,11.63855,50.384299999999996,11.5942C50.4113,11.54984,50.4501,11.51384,50.4963,11.49018C50.542500000000004,11.46651,50.5944,11.45611,50.6462,11.46013C50.698,11.46415,50.7477,11.48243,50.789699999999996,11.51295Z" fill-rule="evenodd" fill="#000000" fill-opacity="0.8500000238418579"/></g></g></svg>