<svg xmlns="http://www.w3.org/2000/svg" xmlns:xlink="http://www.w3.org/1999/xlink" fill="none" version="1.1" width="60" height="60" viewBox="0 0 60 60"><defs><clipPath id="master_svg0_56_23102"><rect x="0" y="0" width="60" height="60" rx="0"/></clipPath></defs><g clip-path="url(#master_svg0_56_23102)"><g><path d="M44.19941875,10.33178234375C44.19941875,10.33178234375,44.19941875,5.15545034375,44.19941875,5.15545034375C44.19941875,4.70678934375,43.68371875,4.45902134375,43.33551875,4.73357434375C43.33551875,4.73357434375,13.14797575,28.31165234375,13.14797575,28.31165234375C12.891490749999999,28.51115234375,12.68395175,28.76665234375,12.54119175,29.05845234375C12.39843055,29.35035234375,12.324218749999998,29.67095234375,12.32421875,29.99585234375C12.324218749999998,30.32085234375,12.39843055,30.64135234375,12.54119175,30.93335234375C12.68395175,31.22515234375,12.891490749999999,31.48045234375,13.14797575,31.67995234375C13.14797575,31.67995234375,43.33551875,55.25815234375,43.33551875,55.25815234375C43.69041875,55.53265234375,44.19941875,55.28495234375,44.19941875,54.83635234375C44.19941875,54.83635234375,44.19941875,49.65995234375,44.19941875,49.65995234375C44.19941875,49.33185234375,44.045218750000004,49.01695234375,43.79091875,48.81615234375C43.79091875,48.81615234375,19.68368875,29.99915234375,19.68368875,29.99915234375C19.68368875,29.99915234375,43.79091875,11.17553234375,43.79091875,11.17553234375C44.045218750000004,10.97465234375,44.19941875,10.65992234375,44.19941875,10.33178234375C44.19941875,10.33178234375,44.19941875,10.33178234375,44.19941875,10.33178234375Z" fill="#000000" fill-opacity="0.8500000238418579"/></g></g></svg>