<svg xmlns="http://www.w3.org/2000/svg" xmlns:xlink="http://www.w3.org/1999/xlink" fill="none" version="1.1" width="80" height="80" viewBox="0 0 80 80"><defs><clipPath id="master_svg0_56_23086"><rect x="0" y="0" width="80" height="80" rx="0"/></clipPath></defs><g clip-path="url(#master_svg0_56_23086)"><g><path d="M5,40C5,20.6719,20.6719,5,40,5C59.3282,5,75,20.6719,75,40C75,59.3282,59.3282,75,40,75C20.6719,75,5,59.3282,5,40ZM10.93751,40C10.93751,56.0469,23.9531,69.0624,40,69.0624C56.0469,69.0624,69.0624,56.0469,69.0624,40C69.0624,23.9531,56.0469,10.93751,40,10.93751C23.9531,10.93751,10.93751,23.9531,10.93751,40ZM32.866,25.5843L52.0847,39.4907C52.4284,39.7407,52.4284,40.2562,52.0847,40.5062L32.866,54.4124C32.452,54.7093,31.8738,54.4124,31.8738,53.9047L31.8738,50.2407C31.8738,49.436,32.256699999999995,48.686,32.905100000000004,48.2171L44.2644,39.9984L32.905100000000004,31.7796C32.256699999999995,31.3109,31.8738,30.5531,31.8738,29.7562L31.8738,26.0921C31.8733,25.9767,31.9049,25.8634,31.9651,25.7649C32.025099999999995,25.6663,32.1113,25.5863,32.214,25.5337C32.3167,25.4811,32.432,25.458,32.5471,25.467C32.6622,25.4759,32.7727,25.5165,32.866,25.5843Z" fill-rule="evenodd" fill="#1A1A1A" fill-opacity="1"/></g></g></svg>