<svg xmlns="http://www.w3.org/2000/svg" xmlns:xlink="http://www.w3.org/1999/xlink" fill="none" version="1.1" width="60" height="60" viewBox="0 0 60 60"><defs><clipPath id="master_svg0_56_23200"><rect x="0" y="0" width="60" height="60" rx="0"/></clipPath></defs><g clip-path="url(#master_svg0_56_23200)"><g><path d="M46.9888,28.31408203125C46.9888,28.31408203125,16.801345,4.73594403125,16.801345,4.73594403125C16.722463,4.67384233125,16.627665,4.63524913125,16.52784,4.62459580125C16.428013,4.61394243125,16.327207,4.63166103125,16.236997,4.67571723125C16.146785,4.71977333125,16.070832,4.78838003125,16.0178558,4.87365903125C15.9648795,4.95893503125,15.937029828,5.05742703125,15.93750600553,5.15781903125C15.93750600553,5.15781903125,15.93750600553,10.334162031249999,15.93750600553,10.334162031249999C15.93750600553,10.662282031250001,16.091524,10.97701203125,16.345988,11.177912031249999C16.345988,11.177912031249999,40.453199999999995,30.00158203125,40.453199999999995,30.00158203125C40.453199999999995,30.00158203125,16.345988,48.82528203125,16.345988,48.82528203125C16.084828,49.02608203125,15.93750600553,49.34088203125,15.93750600553,49.66888203125C15.93750600553,49.66888203125,15.93750600553,54.84528203125,15.93750600553,54.84528203125C15.93750600553,55.29388203125,16.45313,55.54178203125,16.801345,55.26728203125C16.801345,55.26728203125,46.9888,31.68908203125,46.9888,31.68908203125C47.2455,31.48888203125,47.453,31.23288203125,47.5957,30.94058203125C47.7385,30.64808203125,47.8127,30.32688203125,47.8127,30.00158203125C47.8127,29.67628203125,47.7385,29.35508203125,47.5957,29.06258203125C47.453,28.77028203125,47.2455,28.51428203125,46.9888,28.31408203125C46.9888,28.31408203125,46.9888,28.31408203125,46.9888,28.31408203125Z" fill="#000000" fill-opacity="0.8500000238418579"/></g></g></svg>