<svg xmlns="http://www.w3.org/2000/svg" xmlns:xlink="http://www.w3.org/1999/xlink" fill="none" version="1.1" width="36" height="36" viewBox="0 0 36 36"><defs><clipPath id="master_svg0_56_23121"><rect x="0" y="0" width="36" height="36" rx="0"/></clipPath></defs><g clip-path="url(#master_svg0_56_23121)"><g><path d="M2.25,18C2.25,9.302340000000001,9.302340000000001,2.25,18,2.25C26.6977,2.25,33.75,9.302340000000001,33.75,18C33.75,26.6977,26.6977,33.75,18,33.75C9.302340000000001,33.75,2.25,26.6977,2.25,18ZM4.92188,18C4.92188,25.2211,10.77891,31.0781,18,31.0781C25.2211,31.0781,31.0781,25.2211,31.0781,18C31.0781,10.77891,25.2211,4.92188,18,4.92188C10.77891,4.92188,4.92188,10.77891,4.92188,18ZM14.7897,11.51295L23.4381,17.7708C23.5928,17.8833,23.5928,18.115299999999998,23.4381,18.227800000000002L14.7897,24.4856C14.6034,24.6192,14.3432,24.4856,14.3432,24.2571L14.3432,22.6083C14.3432,22.2462,14.5155,21.9087,14.8073,21.6977L19.919,17.999299999999998L14.8073,14.3008C14.5155,14.0899,14.3432,13.7489,14.3432,13.3903L14.3432,11.74146C14.343,11.68952,14.3572,11.63855,14.3843,11.5942C14.4113,11.54984,14.4501,11.51384,14.4963,11.49018C14.5425,11.46651,14.5944,11.45611,14.6462,11.46013C14.698,11.46415,14.7477,11.48243,14.7897,11.51295Z" fill-rule="evenodd" fill="#000000" fill-opacity="0.8500000238418579"/></g></g></svg>