<svg xmlns="http://www.w3.org/2000/svg" xmlns:xlink="http://www.w3.org/1999/xlink" fill="none" version="1.1" width="32" height="32" viewBox="0 0 32 32"><defs><clipPath id="master_svg0_56_23082"><rect x="0" y="0" width="32" height="32" rx="0"/></clipPath></defs><g clip-path="url(#master_svg0_56_23082)"><g><path d="M27.4296875,8.861609999999999C27.4296875,8.861609999999999,22.5724875,8.861609999999999,22.5724875,8.861609999999999C22.5724875,8.861609999999999,22.5724875,8.29018,22.5724875,8.29018C22.5724875,4.6616,19.6296875,1.71875,16.0011875,1.71875C12.3725375,1.71875,9.4296875,4.6616,9.4296875,8.29018C9.4296875,8.29018,9.4296875,8.861609999999999,9.4296875,8.861609999999999C9.4296875,8.861609999999999,4.5725375,8.861609999999999,4.5725375,8.861609999999999C3.9404025000000003,8.861609999999999,3.4296875,9.37232,3.4296875,10.00447C3.4296875,10.00447,3.4296875,29.14725,3.4296875,29.14725C3.4296875,29.77945,3.9404025000000003,30.29025,4.5725375,30.29025C4.5725375,30.29025,27.4296875,30.29025,27.4296875,30.29025C28.0618875,30.29025,28.5724875,29.77945,28.5724875,29.14725C28.5724875,29.14725,28.5724875,10.00447,28.5724875,10.00447C28.5724875,9.37232,28.0618875,8.861609999999999,27.4296875,8.861609999999999C27.4296875,8.861609999999999,27.4296875,8.861609999999999,27.4296875,8.861609999999999ZM12.0011175,8.29018C12.0011175,6.07946,13.7903875,4.290179999999999,16.0011875,4.290179999999999C18.2117875,4.290179999999999,20.0011875,6.07946,20.0011875,8.29018C20.0011875,8.29018,20.0011875,8.861609999999999,20.0011875,8.861609999999999C20.0011875,8.861609999999999,12.0011175,8.861609999999999,12.0011175,8.861609999999999C12.0011175,8.861609999999999,12.0011175,8.29018,12.0011175,8.29018C12.0011175,8.29018,12.0011175,8.29018,12.0011175,8.29018ZM26.0011875,27.71875C26.0011875,27.71875,6.001117499999999,27.71875,6.001117499999999,27.71875C6.001117499999999,27.71875,6.001117499999999,11.43306,6.001117499999999,11.43306C6.001117499999999,11.43306,9.4296875,11.43306,9.4296875,11.43306C9.4296875,11.43306,9.4296875,14.57595,9.4296875,14.57595C9.4296875,14.73305,9.5582575,14.86155,9.715407500000001,14.86155C9.715407500000001,14.86155,11.7154075,14.86155,11.7154075,14.86155C11.8725375,14.86155,12.0011175,14.73305,12.0011175,14.57595C12.0011175,14.57595,12.0011175,11.43306,12.0011175,11.43306C12.0011175,11.43306,20.0011875,11.43306,20.0011875,11.43306C20.0011875,11.43306,20.0011875,14.57595,20.0011875,14.57595C20.0011875,14.73305,20.1296875,14.86155,20.2868875,14.86155C20.2868875,14.86155,22.2868875,14.86155,22.2868875,14.86155C22.4439875,14.86155,22.5724875,14.73305,22.5724875,14.57595C22.5724875,14.57595,22.5724875,11.43306,22.5724875,11.43306C22.5724875,11.43306,26.0011875,11.43306,26.0011875,11.43306C26.0011875,11.43306,26.0011875,27.71875,26.0011875,27.71875C26.0011875,27.71875,26.0011875,27.71875,26.0011875,27.71875Z" fill="#000000" fill-opacity="0.8500000238418579"/></g></g></svg>