<svg xmlns="http://www.w3.org/2000/svg" xmlns:xlink="http://www.w3.org/1999/xlink" fill="none" version="1.1" width="27" height="27" viewBox="0 0 27 27"><g><path d="M16.3067,8.63698Q16.331,8.71182,16.3667,8.78194Q16.4025,8.85206,16.4487,8.91573Q16.495,8.97939,16.5506,9.03504Q16.6063,9.09069,16.6699,9.13694Q16.7336,9.1832,16.8037,9.21893Q16.8738,9.25466,16.9487,9.27898Q17.0235,9.3033,17.1013,9.31561Q17.179,9.32792,17.2577,9.32793L23.262,9.32815Q23.3013,9.32816,23.3404,9.33124Q23.3796,9.33432,23.4184,9.34047Q23.4572,9.34662,23.4954,9.35579Q23.5336,9.36497,23.571,9.37711Q23.6084,9.38925,23.6446,9.40429Q23.6809,9.41932,23.716,9.43716Q23.751,9.455,23.7845,9.47553Q23.818,9.49605,23.8497,9.51915Q23.8815,9.54224,23.9114,9.56776Q23.9413,9.59328,23.9691,9.62106Q23.9968,9.64884,24.0224,9.67872Q24.0479,9.70859,24.071,9.74038Q24.0941,9.77216,24.1146,9.80566Q24.1351,9.83916,24.153,9.87417Q24.1708,9.90918,24.1858,9.94547Q24.2009,9.98177,24.213,10.0191Q24.2251,10.0565,24.2343,10.0947Q24.2435,10.1329,24.2496,10.1717Q24.2558,10.2105,24.2589,10.2497Q24.2619,10.2889,24.2619,10.3281Q24.2619,10.3674,24.2589,10.4066Q24.2558,10.4458,24.2496,10.4846Q24.2435,10.5234,24.2343,10.5616Q24.2251,10.5998,24.213,10.6372Q24.2009,10.6745,24.1858,10.7108Q24.1708,10.7471,24.153,10.7821Q24.1351,10.8171,24.1146,10.8506Q24.0941,10.8841,24.071,10.9159Q24.0479,10.9477,24.0224,10.9776Q23.9968,11.0075,23.9691,11.0352Q23.9413,11.063,23.9114,11.0885Q23.8815,11.1141,23.8498,11.1371L18.9923,14.6666Q18.9287,14.7128,18.873,14.7685Q18.8174,14.8241,18.7711,14.8878Q18.7248,14.9515,18.6891,15.0216Q18.6534,15.0917,18.6291,15.1665Q18.6048,15.2414,18.5924,15.3191Q18.5801,15.3968,18.5801,15.4755Q18.5801,15.5542,18.5924,15.632Q18.6048,15.7097,18.6291,15.7845L20.4843,21.495Q20.4964,21.5324,20.5056,21.5706Q20.5148,21.6088,20.5209,21.6476Q20.5271,21.6864,20.5301,21.7256Q20.5332,21.7647,20.5332,21.804Q20.5332,21.8433,20.5301,21.8825Q20.527,21.9217,20.5209,21.9605Q20.5147,21.9993,20.5056,22.0375Q20.4964,22.0757,20.4843,22.113Q20.4721,22.1504,20.4571,22.1867Q20.442,22.223,20.4242,22.258Q20.4064,22.293,20.3858,22.3265Q20.3653,22.36,20.3422,22.3918Q20.3191,22.4236,20.2936,22.4535Q20.2681,22.4833,20.2403,22.5111Q20.2125,22.5389,20.1827,22.5644Q20.1528,22.5899,20.121,22.613Q20.0892,22.6361,20.0557,22.6566Q20.0222,22.6772,19.9872,22.695Q19.9522,22.7128,19.9159,22.7279Q19.8796,22.7429,19.8422,22.7551Q19.8049,22.7672,19.7667,22.7764Q19.7285,22.7855,19.6897,22.7917Q19.6509,22.7978,19.6117,22.8009Q19.5725,22.804,19.5332,22.804Q19.4939,22.804,19.4548,22.8009Q19.4156,22.7978,19.3768,22.7917Q19.338,22.7855,19.2998,22.7764Q19.2616,22.7672,19.2242,22.7551Q19.1869,22.7429,19.1506,22.7279Q19.1143,22.7129,19.0793,22.695Q19.0442,22.6772,19.0107,22.6567Q18.9772,22.6361,18.9455,22.613L14.0878,19.084Q14.0241,19.0377,13.954,19.002Q13.8838,18.9663,13.809,18.942Q13.7342,18.9177,13.6564,18.9053Q13.5787,18.893,13.5,18.893Q13.4213,18.893,13.3436,18.9053Q13.2658,18.9177,13.191,18.942Q13.1162,18.9663,13.046,19.002Q12.9759,19.0377,12.9122,19.084L8.05455,22.613Q8.02276,22.6361,7.98926,22.6567Q7.95576,22.6772,7.92075,22.695Q7.88575,22.7129,7.84945,22.7279Q7.81315,22.7429,7.77578,22.7551Q7.73842,22.7672,7.70021,22.7764Q7.66201,22.7855,7.6232,22.7917Q7.5844,22.7978,7.54523,22.8009Q7.50606,22.804,7.46677,22.804Q7.42748,22.804,7.38832,22.8009Q7.34915,22.7978,7.31034,22.7917Q7.27154,22.7855,7.23334,22.7764Q7.19513,22.7672,7.15777,22.7551Q7.1204,22.7429,7.0841,22.7279Q7.0478,22.7128,7.0128,22.695Q6.97779,22.6772,6.94429,22.6566Q6.91079,22.6361,6.87901,22.613Q6.84722,22.5899,6.81735,22.5644Q6.78747,22.5389,6.75969,22.5111Q6.73191,22.4833,6.70639,22.4535Q6.68087,22.4236,6.65778,22.3918Q6.63469,22.36,6.61416,22.3265Q6.59363,22.293,6.57579,22.258Q6.55796,22.223,6.54292,22.1867Q6.52788,22.1504,6.51574,22.113Q6.5036,22.0757,6.49443,22.0375Q6.48525,21.9993,6.47911,21.9605Q6.47296,21.9217,6.46988,21.8825Q6.46679,21.8433,6.46679,21.804Q6.46679,21.7647,6.46987,21.7256Q6.47295,21.6864,6.4791,21.6476Q6.48524,21.6088,6.49441,21.5706Q6.50358,21.5324,6.51572,21.495L8.37093,15.7845Q8.39525,15.7097,8.40756,15.632Q8.41986,15.5542,8.41986,15.4755Q8.41986,15.3968,8.40755,15.3191Q8.39524,15.2414,8.37092,15.1665Q8.3466,15.0917,8.31087,15.0216Q8.27515,14.9515,8.22889,14.8878Q8.18264,14.8241,8.12699,14.7685Q8.07134,14.7128,8.00768,14.6666L3.15025,11.1371Q3.11846,11.1141,3.08859,11.0885Q3.05871,11.063,3.03093,11.0352Q3.00315,11.0075,2.97764,10.9776Q2.95212,10.9477,2.92903,10.9159Q2.90594,10.8841,2.88541,10.8506Q2.86488,10.8171,2.84705,10.7821Q2.82921,10.7471,2.81417,10.7108Q2.79914,10.6745,2.787,10.6372Q2.77486,10.5998,2.76569,10.5616Q2.75652,10.5234,2.75037,10.4846Q2.74423,10.4458,2.74114,10.4066Q2.73806,10.3674,2.73806,10.3281Q2.73806,10.2889,2.74115,10.2497Q2.74423,10.2105,2.75038,10.1717Q2.75652,10.1329,2.76569,10.0947Q2.77486,10.0565,2.78701,10.0191Q2.79915,9.98177,2.81418,9.94548Q2.82922,9.90918,2.84705,9.87417Q2.86489,9.83916,2.88542,9.80566Q2.90595,9.77216,2.92904,9.74038Q2.95213,9.70859,2.97765,9.67872Q3.00316,9.64884,3.03095,9.62106Q3.05873,9.59328,3.0886,9.56776Q3.11848,9.54224,3.15026,9.51915Q3.18205,9.49606,3.21555,9.47553Q3.24904,9.455,3.28405,9.43716Q3.31906,9.41932,3.35536,9.40429Q3.39165,9.38925,3.42902,9.37711Q3.46638,9.36497,3.50459,9.35579Q3.54279,9.34662,3.5816,9.34047Q3.6204,9.33432,3.65957,9.33124Q3.69874,9.32816,3.73802,9.32816L9.74231,9.32793Q9.821,9.32792,9.89873,9.31561Q9.97646,9.3033,10.0513,9.27898Q10.1261,9.25466,10.1963,9.21893Q10.2664,9.1832,10.3301,9.13694Q10.3937,9.09069,10.4494,9.03504Q10.505,8.97939,10.5513,8.91573Q10.5975,8.85206,10.6333,8.78194Q10.669,8.71182,10.6933,8.63698L12.549,2.92664Q12.5611,2.88927,12.5761,2.85297Q12.5912,2.81668,12.609,2.78167Q12.6268,2.74666,12.6474,2.71317Q12.6679,2.67967,12.691,2.64788Q12.7141,2.6161,12.7396,2.58622Q12.7651,2.55635,12.7929,2.52857Q12.8207,2.50079,12.8506,2.47527Q12.8804,2.44976,12.9122,2.42666Q12.944,2.40357,12.9775,2.38304Q13.011,2.36251,13.046,2.34468Q13.081,2.32684,13.1173,2.31181Q13.1536,2.29677,13.191,2.28463Q13.2284,2.27249,13.2666,2.26332Q13.3048,2.25415,13.3436,2.248Q13.3824,2.24186,13.4215,2.23877Q13.4607,2.23569,13.5,2.23569Q13.5393,2.23569,13.5785,2.23877Q13.6176,2.24186,13.6564,2.248Q13.6952,2.25415,13.7334,2.26332Q13.7716,2.27249,13.809,2.28463Q13.8464,2.29677,13.8827,2.31181Q13.919,2.32684,13.954,2.34468Q13.989,2.36251,14.0225,2.38304Q14.056,2.40357,14.0878,2.42666Q14.1196,2.44976,14.1494,2.47527Q14.1793,2.50079,14.2071,2.52857Q14.2349,2.55635,14.2604,2.58622Q14.2859,2.6161,14.309,2.64788Q14.3321,2.67967,14.3526,2.71317Q14.3732,2.74666,14.391,2.78167Q14.4088,2.81668,14.4239,2.85297Q14.4389,2.88927,14.451,2.92664L16.3067,8.63698Z" fill="#FDCC5D" fill-opacity="1"/></g></svg>